  0
SECTION
  2
HEADER
  9
$ACADVER
  1
AC1014
  9
$HANDSEED
  5
FFFF
  9
$MEASUREMENT
 70
     1
  0
ENDSEC
  0
SECTION
  2
TABLES
  0
TABLE
  2
VPORT
  5
8
330
0
100
AcDbSymbolTable
 70
     4
  0
VPORT
  5
2E
330
8
100
AcDbSymbolTableRecord
100
AcDbViewportTableRecord
  2
*ACTIVE
 70
     0
 10
0.0
 20
0.0
 11
1.0
 21
1.0
 12
210.0
 22
148.5
 13
0.0
 23
0.0
 14
10.0
 24
10.0
 15
10.0
 25
10.0
 16
0.0
 26
0.0
 36
1.0
 17
0.0
 27
0.0
 37
0.0
 40
341.0
 41
1.24
 42
50.0
 43
0.0
 44
0.0
 50
0.0
 51
0.0
 71
     0
 72
   100
 73
     1
 74
     3
 75
     0
 76
     0
 77
     0
 78
     0
  0
ENDTAB
  0
TABLE
  2
LTYPE
  5
5
330
0
100
AcDbSymbolTable
 70
     1
  0
LTYPE
  5
14
330
5
100
AcDbSymbolTableRecord
100
AcDbLinetypeTableRecord
  2
BYBLOCK
 70
     0
  3

 72
    65
 73
     0
 40
0.0
  0
LTYPE
  5
15
330
5
100
AcDbSymbolTableRecord
100
AcDbLinetypeTableRecord
  2
BYLAYER
 70
     0
  3

 72
    65
 73
     0
 40
0.0
  0
LTYPE
  5
16
330
5
100
AcDbSymbolTableRecord
100
AcDbLinetypeTableRecord
  2
CONTINUOUS
 70
     0
  3
Solid line
 72
    65
 73
     0
 40
0.0
  0
ENDTAB
  0
TABLE
  2
LAYER
  5
2
100
AcDbSymbolTable
 70
2
  0
LAYER
  5
50
100
AcDbSymbolTableRecord
100
AcDbLayerTableRecord
  2
0
 70
0
  6
CONTINUOUS
  0
LAYER
  5
51
100
AcDbSymbolTableRecord
100
AcDbLayerTableRecord
  2
Layer_1
 70
0
  6
CONTINUOUS
  0
ENDTAB
  0
TABLE
  2
STYLE
  5
3
330
0
100
AcDbSymbolTable
 70
     1
  0
STYLE
  5
11
330
3
100
AcDbSymbolTableRecord
100
AcDbTextStyleTableRecord
  2
STANDARD
 70
     0
 40
0.0
 41
1.0
 50
0.0
 71
     0
 42
2.5
  3
txt
  4

  0
ENDTAB
  0
TABLE
  2
VIEW
  5
6
330
0
100
AcDbSymbolTable
 70
     0
  0
ENDTAB
  0
TABLE
  2
UCS
  5
7
330
0
100
AcDbSymbolTable
 70
     0
  0
ENDTAB
  0
TABLE
  2
APPID
  5
9
330
0
100
AcDbSymbolTable
 70
     2
  0
APPID
  5
12
330
9
100
AcDbSymbolTableRecord
100
AcDbRegAppTableRecord
  2
ACAD
 70
     0
  0
ENDTAB
  0
TABLE
  2
DIMSTYLE
  5
A
330
0
100
AcDbSymbolTable
 70
     1
  0
DIMSTYLE
105
27
330
A
100
AcDbSymbolTableRecord
100
AcDbDimStyleTableRecord
  2
ISO-25
 70
     0
  3

  4

  5

  6

  7

 40
1.0
 41
2.5
 42
0.625
 43
3.75
 44
1.25
 45
0.0
 46
0.0
 47
0.0
 48
0.0
140
2.5
141
2.5
142
0.0
143
0.03937007874016
144
1.0
145
0.0
146
1.0
147
0.625
 71
     0
 72
     0
 73
     0
 74
     0
 75
     0
 76
     0
 77
     1
 78
     8
170
     0
171
     3
172
     1
173
     0
174
     0
175
     0
176
     0
177
     0
178
     0
270
     2
271
     2
272
     2
273
     2
274
     3
340
11
275
     0
280
     0
281
     0
282
     0
283
     0
284
     8
285
     0
286
     0
287
     3
288
     0
  0
ENDTAB
  0
TABLE
  2
BLOCK_RECORD
  5
1
330
0
100
AcDbSymbolTable
 70
     1
  0
BLOCK_RECORD
  5
1F
330
1
100
AcDbSymbolTableRecord
100
AcDbBlockTableRecord
  2
*MODEL_SPACE
  0
BLOCK_RECORD
  5
1B
330
1
100
AcDbSymbolTableRecord
100
AcDbBlockTableRecord
  2
*PAPER_SPACE
  0
ENDTAB
  0
ENDSEC
  0
SECTION
  2
BLOCKS
  0
BLOCK
  5
20
330
1F
100
AcDbEntity
  8
0
100
AcDbBlockBegin
  2
*MODEL_SPACE
 70
     0
 10
0.0
 20
0.0
 30
0.0
  3
*MODEL_SPACE
  1

  0
ENDBLK
  5
21
330
1F
100
AcDbEntity
  8
0
100
AcDbBlockEnd
  0
BLOCK
  5
1C
330
1B
100
AcDbEntity
 67
     1
  8
0
100
AcDbBlockBegin
  2
*PAPER_SPACE
  1

  0
ENDBLK
  5
1D
330
1B
100
AcDbEntity
 67
     1
  8
0
100
AcDbBlockEnd
  0
ENDSEC
  0
SECTION
  2
ENTITIES
  0
LWPOLYLINE
  5
100
100
AcDbEntity
  8
Layer_1
 62
7
100
AcDbPolyline
 90
125
 70
1
 10
6.728598
 20
221.318279
 30
0.0
 10
6.922784
 20
220.829046
 30
0.0
 10
7.168684
 20
220.363662
 30
0.0
 10
7.463421
 20
219.927572
 30
0.0
 10
7.803544
 20
219.525857
 30
0.0
 10
8.185073
 20
219.163230
 30
0.0
 10
8.603541
 20
218.843952
 30
0.0
 10
9.054052
 20
218.571777
 30
0.0
 10
9.531332
 20
218.349837
 30
0.0
 10
23.454914
 20
212.770050
 30
0.0
 10
23.995653
 20
212.670990
 30
0.0
 10
24.544521
 20
212.640115
 30
0.0
 10
25.092964
 20
212.677848
 30
0.0
 10
25.632425
 20
212.783653
 30
0.0
 10
26.154495
 20
212.955865
 30
0.0
 10
26.651039
 20
213.191774
 30
0.0
 10
27.114311
 20
213.487741
 30
0.0
 10
27.537090
 20
213.839107
 30
0.0
 10
27.912784
 20
214.240456
 30
0.0
 10
28.235537
 20
214.685464
 30
0.0
 10
28.500321
 20
215.167245
 30
0.0
 10
28.702999
 20
215.678237
 30
0.0
 10
30.730026
 20
219.917497
 30
0.0
 10
33.785183
 20
223.487664
 30
0.0
 10
37.660264
 20
226.145436
 30
0.0
 10
39.875728
 20
226.927586
 30
0.0
 10
103.277594
 20
226.927586
 30
0.0
 10
106.153356
 20
227.201483
 30
0.0
 10
110.014769
 20
226.551215
 30
0.0
 10
113.576300
 20
224.923667
 30
0.0
 10
116.595243
 20
222.429811
 30
0.0
 10
118.865859
 20
219.239543
 30
0.0
 10
119.549624
 20
217.404929
 30
0.0
 10
119.907039
 20
216.626475
 30
0.0
 10
120.374839
 20
215.908925
 30
0.0
 10
120.942899
 20
215.267801
 30
0.0
 10
121.598913
 20
214.717016
 30
0.0
 10
122.328666
 20
214.268452
 30
0.0
 10
123.116354
 20
213.931902
 30
0.0
 10
123.944913
 20
213.714591
 30
0.0
 10
124.796392
 20
213.621260
 30
0.0
 10
125.652358
 20
213.653941
 30
0.0
 10
126.494246
 20
213.811873
 30
0.0
 10
127.303838
 20
214.091696
 30
0.0
 10
128.063583
 20
214.487315
 30
0.0
 10
141.008887
 20
219.384238
 30
0.0
 10
141.341238
 20
219.505593
 30
0.0
 10
141.659887
 20
219.659348
 30
0.0
 10
141.961723
 20
219.843950
 30
0.0
 10
142.243720
 20
220.057620
 30
0.0
 10
142.503133
 20
220.298243
 30
0.0
 10
142.737372
 20
220.563391
 30
0.0
 10
142.944144
 20
220.850495
 30
0.0
 10
143.121388
 20
221.156706
 30
0.0
 10
143.267357
 20
221.479004
 30
0.0
 10
143.380621
 20
221.814199
 30
0.0
 10
143.460058
 20
222.158990
 30
0.0
 10
143.504875
 20
222.509934
 30
0.0
 10
143.504875
 20
280.651956
 30
0.0
 10
143.460058
 20
281.002916
 30
0.0
 10
143.380621
 20
281.347696
 30
0.0
 10
143.267357
 20
281.682886
 30
0.0
 10
143.121388
 20
282.005183
 30
0.0
 10
142.944144
 20
282.311397
 30
0.0
 10
142.737372
 20
282.598505
 30
0.0
 10
142.503133
 20
282.863672
 30
0.0
 10
142.243720
 20
283.104272
 30
0.0
 10
141.961723
 20
283.317943
 30
0.0
 10
141.659887
 20
283.502559
 30
0.0
 10
141.341238
 20
283.656305
 30
0.0
 10
141.008887
 20
283.777666
 30
0.0
 10
128.063583
 20
288.674594
 30
0.0
 10
127.303838
 20
289.070207
 30
0.0
 10
126.494246
 20
289.350025
 30
0.0
 10
125.652358
 20
289.507976
 30
0.0
 10
124.796392
 20
289.540638
 30
0.0
 10
123.944913
 20
289.447307
 30
0.0
 10
123.116354
 20
289.230005
 30
0.0
 10
122.328666
 20
288.893435
 30
0.0
 10
121.598913
 20
288.444896
 30
0.0
 10
120.942899
 20
287.894100
 30
0.0
 10
120.374839
 20
287.252970
 30
0.0
 10
119.907042
 20
286.535412
 30
0.0
 10
119.549627
 20
285.756961
 30
0.0
 10
118.865859
 20
283.922344
 30
0.0
 10
116.595243
 20
280.732096
 30
0.0
 10
113.576300
 20
278.238231
 30
0.0
 10
110.014769
 20
276.610698
 30
0.0
 10
106.153356
 20
275.960418
 30
0.0
 10
103.277594
 20
276.234323
 30
0.0
 10
39.875728
 20
276.234323
 30
0.0
 10
37.660264
 20
277.016460
 30
0.0
 10
33.785183
 20
279.674242
 30
0.0
 10
30.730026
 20
283.244410
 30
0.0
 10
28.702999
 20
287.483661
 30
0.0
 10
28.500321
 20
287.994670
 30
0.0
 10
28.235537
 20
288.476443
 30
0.0
 10
27.912784
 20
288.921459
 30
0.0
 10
27.537090
 20
289.322788
 30
0.0
 10
27.114311
 20
289.674166
 30
0.0
 10
26.651039
 20
289.970127
 30
0.0
 10
26.154495
 20
290.206042
 30
0.0
 10
25.632425
 20
290.378245
 30
0.0
 10
25.092964
 20
290.484042
 30
0.0
 10
24.544523
 20
290.521792
 30
0.0
 10
23.995655
 20
290.490900
 30
0.0
 10
23.454914
 20
290.391849
 30
0.0
 10
9.531332
 20
284.812075
 30
0.0
 10
9.120205
 20
284.624584
 30
0.0
 10
8.728368
 20
284.399545
 30
0.0
 10
8.359241
 20
284.138919
 30
0.0
 10
8.016044
 20
283.844990
 30
0.0
 10
7.701774
 20
283.520319
 30
0.0
 10
7.419171
 20
283.167736
 30
0.0
 10
7.170704
 20
282.790317
 30
0.0
 10
6.958539
 20
282.391359
 30
0.0
 10
6.784529
 20
281.974353
 30
0.0
 10
6.650191
 20
281.542917
 30
0.0
 10
6.556699
 20
281.100833
 30
0.0
 10
6.504869
 20
280.651956
 30
0.0
 10
6.504867
 20
223.396309
 30
0.0
 10
6.475873
 20
222.870755
 30
0.0
 10
6.503824
 20
222.345144
 30
0.0
 10
6.588396
 20
221.825629
 30
0.0
 10
6.728598
 20
221.318279
 30
0.0
  0
LWPOLYLINE
  5
101
100
AcDbEntity
  8
Layer_1
 62
7
100
AcDbPolyline
 90
25
 70
1
 10
93.940305
 20
230.000236
 30
0.0
 10
93.993095
 20
230.255895
 30
0.0
 10
94.110251
 20
230.489183
 30
0.0
 10
94.283795
 20
230.684196
 30
0.0
 10
94.501905
 20
230.827646
 30
0.0
 10
94.749707
 20
230.909759
 30
0.0
 10
95.010314
 20
230.924942
 30
0.0
 10
95.265974
 20
230.872153
 30
0.0
 10
95.499259
 20
230.754994
 30
0.0
 10
95.694274
 20
230.581450
 30
0.0
 10
95.837728
 20
230.363340
 30
0.0
 10
95.919838
 20
230.115540
 30
0.0
 10
95.935021
 20
229.854931
 30
0.0
 10
95.882234
 20
229.599271
 30
0.0
 10
95.765078
 20
229.365983
 30
0.0
 10
95.591531
 20
229.170971
 30
0.0
 10
95.373421
 20
229.027520
 30
0.0
 10
95.125619
 20
228.945410
 30
0.0
 10
94.865007
 20
228.930227
 30
0.0
 10
94.609353
 20
228.983016
 30
0.0
 10
94.376062
 20
229.100175
 30
0.0
 10
94.181055
 20
229.273719
 30
0.0
 10
94.037599
 20
229.491826
 30
0.0
 10
93.955486
 20
229.739629
 30
0.0
 10
93.940305
 20
230.000236
 30
0.0
  0
LWPOLYLINE
  5
102
100
AcDbEntity
  8
Layer_1
 62
7
100
AcDbPolyline
 90
25
 70
1
 10
10.361431
 20
278.743321
 30
0.0
 10
9.983018
 20
278.844015
 30
0.0
 10
9.643560
 20
279.039214
 30
0.0
 10
9.366190
 20
279.315611
 30
0.0
 10
9.169809
 20
279.654384
 30
0.0
 10
9.067801
 20
280.032444
 30
0.0
 10
9.067124
 20
280.424024
 30
0.0
 10
9.167808
 20
280.802433
 30
0.0
 10
9.363005
 20
281.141896
 30
0.0
 10
9.639410
 20
281.419264
 30
0.0
 10
9.978184
 20
281.615643
 30
0.0
 10
10.356244
 20
281.717655
 30
0.0
 10
10.747821
 20
281.718276
 30
0.0
 10
11.126233
 20
281.617648
 30
0.0
 10
11.465691
 20
281.422452
 30
0.0
 10
11.743062
 20
281.146046
 30
0.0
 10
11.939442
 20
280.807271
 30
0.0
 10
12.041454
 20
280.429210
 30
0.0
 10
12.042131
 20
280.037638
 30
0.0
 10
11.941443
 20
279.659221
 30
0.0
 10
11.746246
 20
279.319767
 30
0.0
 10
11.469842
 20
279.042393
 30
0.0
 10
11.131067
 20
278.846011
 30
0.0
 10
10.753009
 20
278.743946
 30
0.0
 10
10.361431
 20
278.743321
 30
0.0
  0
LWPOLYLINE
  5
103
100
AcDbEntity
  8
Layer_1
 62
7
100
AcDbPolyline
 90
27
 70
1
 10
51.893095
 20
234.039984
 30
0.0
 10
52.254867
 20
234.189833
 30
0.0
 10
52.565526
 20
234.428212
 30
0.0
 10
52.803905
 20
234.738871
 30
0.0
 10
52.953756
 20
235.100643
 30
0.0
 10
53.004867
 20
235.488871
 30
0.0
 10
52.953756
 20
235.877099
 30
0.0
 10
52.803905
 20
236.238871
 30
0.0
 10
52.565526
 20
236.549532
 30
0.0
 10
52.254867
 20
236.787911
 30
0.0
 10
51.893095
 20
236.937760
 30
0.0
 10
51.504867
 20
236.988806
 30
0.0
 10
36.540135
 20
236.988523
 30
0.0
 10
36.150815
 20
236.946554
 30
0.0
 10
35.785620
 20
236.805254
 30
0.0
 10
35.469443
 20
236.574247
 30
0.0
 10
35.223825
 20
236.269277
 30
0.0
 10
35.065510
 20
235.911129
 30
0.0
 10
35.005284
 20
235.524208
 30
0.0
 10
35.047253
 20
235.134888
 30
0.0
 10
35.188553
 20
234.769690
 30
0.0
 10
35.419563
 20
234.453510
 30
0.0
 10
35.724530
 20
234.207895
 30
0.0
 10
36.082678
 20
234.049580
 30
0.0
 10
36.469597
 20
233.989354
 30
0.0
 10
51.504867
 20
233.989071
 30
0.0
 10
51.893095
 20
234.039984
 30
0.0
  0
LWPOLYLINE
  5
104
100
AcDbEntity
  8
Layer_1
 62
7
100
AcDbPolyline
 90
25
 70
1
 10
23.574796
 20
237.500551
 30
0.0
 10
23.913572
 20
237.304169
 30
0.0
 10
24.189975
 20
237.026796
 30
0.0
 10
24.385173
 20
236.687342
 30
0.0
 10
24.485860
 20
236.308927
 30
0.0
 10
24.485183
 20
235.917349
 30
0.0
 10
24.383171
 20
235.539293
 30
0.0
 10
24.186790
 20
235.200516
 30
0.0
 10
23.909420
 20
234.924113
 30
0.0
 10
23.569961
 20
234.728914
 30
0.0
 10
23.191549
 20
234.628288
 30
0.0
 10
22.799971
 20
234.628852
 30
0.0
 10
22.421913
 20
234.730861
 30
0.0
 10
22.083138
 20
234.927240
 30
0.0
 10
21.806734
 20
235.204611
 30
0.0
 10
21.611537
 20
235.544071
 30
0.0
 10
21.510849
 20
235.922483
 30
0.0
 10
21.511526
 20
236.314060
 30
0.0
 10
21.613540
 20
236.692114
 30
0.0
 10
21.809921
 20
237.030888
 30
0.0
 10
22.087291
 20
237.307296
 30
0.0
 10
22.426750
 20
237.502492
 30
0.0
 10
22.805162
 20
237.603181
 30
0.0
 10
23.196740
 20
237.602616
 30
0.0
 10
23.574796
 20
237.500551
 30
0.0
  0
LWPOLYLINE
  5
105
100
AcDbEntity
  8
Layer_1
 62
7
100
AcDbPolyline
 90
25
 70
1
 10
11.126230
 20
221.544257
 30
0.0
 10
11.465688
 20
221.739442
 30
0.0
 10
11.743059
 20
222.015850
 30
0.0
 10
11.939439
 20
222.354630
 30
0.0
 10
12.041450
 20
222.732694
 30
0.0
 10
12.042127
 20
223.124278
 30
0.0
 10
11.941439
 20
223.502681
 30
0.0
 10
11.746242
 20
223.842138
 30
0.0
 10
11.469839
 20
224.119506
 30
0.0
 10
11.131063
 20
224.315933
 30
0.0
 10
10.753004
 20
224.418295
 30
0.0
 10
10.361427
 20
224.418577
 30
0.0
 10
9.983014
 20
224.317937
 30
0.0
 10
9.643556
 20
224.122752
 30
0.0
 10
9.366186
 20
223.846287
 30
0.0
 10
9.169805
 20
223.507451
 30
0.0
 10
9.067794
 20
223.129414
 30
0.0
 10
9.067117
 20
222.737887
 30
0.0
 10
9.167805
 20
222.359456
 30
0.0
 10
9.363002
 20
222.019942
 30
0.0
 10
9.639406
 20
221.742574
 30
0.0
 10
9.978181
 20
221.546204
 30
0.0
 10
10.356241
 20
221.444209
 30
0.0
 10
10.747819
 20
221.443927
 30
0.0
 10
11.126230
 20
221.544257
 30
0.0
  0
LWPOLYLINE
  5
106
100
AcDbEntity
  8
Layer_1
 62
7
100
AcDbPolyline
 90
25
 70
1
 10
137.539617
 20
221.904626
 30
0.0
 10
137.689398
 20
221.543015
 30
0.0
 10
137.927664
 20
221.232514
 30
0.0
 10
138.238179
 20
220.994262
 30
0.0
 10
138.599782
 20
220.844458
 30
0.0
 10
138.987829
 20
220.793376
 30
0.0
 10
139.375859
 20
220.844458
 30
0.0
 10
139.737462
 20
220.994262
 30
0.0
 10
140.047980
 20
221.232514
 30
0.0
 10
140.286246
 20
221.543015
 30
0.0
 10
140.436027
 20
221.904626
 30
0.0
 10
140.487112
 20
222.292682
 30
0.0
 10
140.436027
 20
222.680709
 30
0.0
 10
140.286246
 20
223.042320
 30
0.0
 10
140.047980
 20
223.352821
 30
0.0
 10
139.737462
 20
223.591102
 30
0.0
 10
139.375859
 20
223.740877
 30
0.0
 10
138.987829
 20
223.791959
 30
0.0
 10
138.599782
 20
223.740877
 30
0.0
 10
138.238179
 20
223.591102
 30
0.0
 10
137.927664
 20
223.352821
 30
0.0
 10
137.689398
 20
223.042320
 30
0.0
 10
137.539617
 20
222.680709
 30
0.0
 10
137.488532
 20
222.292682
 30
0.0
 10
137.539617
 20
221.904626
 30
0.0
  0
LWPOLYLINE
  5
107
100
AcDbEntity
  8
Layer_1
 62
7
100
AcDbPolyline
 90
25
 70
1
 10
140.455023
 20
280.469115
 30
0.0
 10
140.305242
 20
280.107518
 30
0.0
 10
140.066976
 20
279.797003
 30
0.0
 10
139.756461
 20
279.558745
 30
0.0
 10
139.394873
 20
279.408964
 30
0.0
 10
139.006826
 20
279.357876
 30
0.0
 10
138.618781
 20
279.408964
 30
0.0
 10
138.257178
 20
279.558745
 30
0.0
 10
137.946661
 20
279.797003
 30
0.0
 10
137.708394
 20
280.107518
 30
0.0
 10
137.558616
 20
280.469115
 30
0.0
 10
137.507528
 20
280.857159
 30
0.0
 10
137.558616
 20
281.245206
 30
0.0
 10
137.708394
 20
281.606809
 30
0.0
 10
137.946661
 20
281.917318
 30
0.0
 10
138.257178
 20
282.155584
 30
0.0
 10
138.618781
 20
282.305363
 30
0.0
 10
139.006826
 20
282.356450
 30
0.0
 10
139.394873
 20
282.305363
 30
0.0
 10
139.756461
 20
282.155584
 30
0.0
 10
140.066976
 20
281.917318
 30
0.0
 10
140.305242
 20
281.606809
 30
0.0
 10
140.455023
 20
281.245206
 30
0.0
 10
140.506109
 20
280.857159
 30
0.0
 10
140.455023
 20
280.469115
 30
0.0
  0
LWPOLYLINE
  5
108
100
AcDbEntity
  8
Layer_1
 62
7
100
AcDbPolyline
 90
27
 70
1
 10
102.043899
 20
265.954373
 30
0.0
 10
101.656981
 20
266.014605
 30
0.0
 10
101.298835
 20
266.172917
 30
0.0
 10
100.993866
 20
266.418535
 30
0.0
 10
100.762853
 20
266.734715
 30
0.0
 10
100.621550
 20
267.099907
 30
0.0
 10
100.579580
 20
267.489222
 30
0.0
 10
100.639807
 20
267.876148
 30
0.0
 10
100.798125
 20
268.234300
 30
0.0
 10
101.043746
 20
268.539269
 30
0.0
 10
101.359922
 20
268.770276
 30
0.0
 10
101.725118
 20
268.911578
 30
0.0
 10
102.114440
 20
268.953551
 30
0.0
 10
117.079169
 20
268.953889
 30
0.0
 10
117.467397
 20
268.902845
 30
0.0
 10
117.829169
 20
268.752990
 30
0.0
 10
118.139831
 20
268.514614
 30
0.0
 10
118.378210
 20
268.203952
 30
0.0
 10
118.528059
 20
267.842183
 30
0.0
 10
118.579169
 20
267.453947
 30
0.0
 10
118.528059
 20
267.065716
 30
0.0
 10
118.378210
 20
266.703941
 30
0.0
 10
118.139831
 20
266.393285
 30
0.0
 10
117.829169
 20
266.154903
 30
0.0
 10
117.467397
 20
266.005055
 30
0.0
 10
117.079169
 20
265.954009
 30
0.0
 10
102.043899
 20
265.954373
 30
0.0
  0
LWPOLYLINE
  5
109
100
AcDbEntity
  8
Layer_1
 62
7
100
AcDbPolyline
 90
25
 70
1
 10
54.071636
 20
272.734326
 30
0.0
 10
53.971735
 20
272.975505
 30
0.0
 10
53.937662
 20
273.234325
 30
0.0
 10
53.971735
 20
273.493143
 30
0.0
 10
54.071636
 20
273.734327
 30
0.0
 10
54.230555
 20
273.941430
 30
0.0
 10
54.437661
 20
274.100350
 30
0.0
 10
54.678842
 20
274.200248
 30
0.0
 10
54.937663
 20
274.234326
 30
0.0
 10
55.196483
 20
274.200248
 30
0.0
 10
55.437662
 20
274.100350
 30
0.0
 10
55.644765
 20
273.941430
 30
0.0
 10
55.803687
 20
273.734327
 30
0.0
 10
55.903585
 20
273.493143
 30
0.0
 10
55.937664
 20
273.234325
 30
0.0
 10
55.903585
 20
272.975505
 30
0.0
 10
55.803687
 20
272.734326
 30
0.0
 10
55.644765
 20
272.527218
 30
0.0
 10
55.437662
 20
272.368298
 30
0.0
 10
55.196483
 20
272.268400
 30
0.0
 10
54.937663
 20
272.234325
 30
0.0
 10
54.678842
 20
272.268400
 30
0.0
 10
54.437661
 20
272.368298
 30
0.0
 10
54.230555
 20
272.527218
 30
0.0
 10
54.071636
 20
272.734326
 30
0.0
  0
LWPOLYLINE
  5
10a
100
AcDbEntity
  8
Layer_1
 62
7
100
AcDbPolyline
 90
27
 70
1
 10
51.893095
 20
268.938110
 30
0.0
 10
52.254867
 20
268.788259
 30
0.0
 10
52.565526
 20
268.549883
 30
0.0
 10
52.803905
 20
268.239222
 30
0.0
 10
52.953756
 20
267.877452
 30
0.0
 10
53.004867
 20
267.489222
 30
0.0
 10
52.953756
 20
267.100991
 30
0.0
 10
52.803905
 20
266.739222
 30
0.0
 10
52.565526
 20
266.428560
 30
0.0
 10
52.254867
 20
266.190184
 30
0.0
 10
51.893095
 20
266.040335
 30
0.0
 10
51.504867
 20
265.989290
 30
0.0
 10
36.469597
 20
265.989572
 30
0.0
 10
36.082678
 20
266.049798
 30
0.0
 10
35.724530
 20
266.208113
 30
0.0
 10
35.419563
 20
266.453729
 30
0.0
 10
35.188553
 20
266.769911
 30
0.0
 10
35.047253
 20
267.135103
 30
0.0
 10
35.005284
 20
267.524426
 30
0.0
 10
35.065510
 20
267.911347
 30
0.0
 10
35.223825
 20
268.269496
 30
0.0
 10
35.469443
 20
268.574465
 30
0.0
 10
35.785620
 20
268.805471
 30
0.0
 10
36.150815
 20
268.946774
 30
0.0
 10
36.540135
 20
268.988741
 30
0.0
 10
51.504867
 20
268.989080
 30
0.0
 10
51.893095
 20
268.938110
 30
0.0
  0
LWPOLYLINE
  5
10b
100
AcDbEntity
  8
Layer_1
 62
7
100
AcDbPolyline
 90
25
 70
1
 10
22.799970
 20
268.532995
 30
0.0
 10
22.421911
 20
268.430989
 30
0.0
 10
22.083137
 20
268.234607
 30
0.0
 10
21.806733
 20
267.957236
 30
0.0
 10
21.611536
 20
267.617777
 30
0.0
 10
21.510847
 20
267.239362
 30
0.0
 10
21.511525
 20
266.847784
 30
0.0
 10
21.613536
 20
266.469731
 30
0.0
 10
21.809917
 20
266.130957
 30
0.0
 10
22.087287
 20
265.854551
 30
0.0
 10
22.426746
 20
265.659352
 30
0.0
 10
22.805158
 20
265.558666
 30
0.0
 10
23.196735
 20
265.559231
 30
0.0
 10
23.574794
 20
265.661299
 30
0.0
 10
23.913570
 20
265.857681
 30
0.0
 10
24.189973
 20
266.135052
 30
0.0
 10
24.385171
 20
266.474509
 30
0.0
 10
24.485856
 20
266.852921
 30
0.0
 10
24.485179
 20
267.244498
 30
0.0
 10
24.383170
 20
267.622558
 30
0.0
 10
24.186790
 20
267.961329
 30
0.0
 10
23.909418
 20
268.237734
 30
0.0
 10
23.569960
 20
268.432930
 30
0.0
 10
23.191548
 20
268.533560
 30
0.0
 10
22.799970
 20
268.532995
 30
0.0
  0
LWPOLYLINE
  5
10c
100
AcDbEntity
  8
Layer_1
 62
7
100
AcDbPolyline
 90
25
 70
1
 10
128.148870
 20
235.580954
 30
0.0
 10
128.097754
 20
235.192724
 30
0.0
 10
127.947905
 20
234.830954
 30
0.0
 10
127.709532
 20
234.520295
 30
0.0
 10
127.398870
 20
234.281916
 30
0.0
 10
127.037101
 20
234.132065
 30
0.0
 10
126.648870
 20
234.080954
 30
0.0
 10
126.260643
 20
234.132065
 30
0.0
 10
125.898870
 20
234.281916
 30
0.0
 10
125.588209
 20
234.520295
 30
0.0
 10
125.349830
 20
234.830954
 30
0.0
 10
125.199981
 20
235.192724
 30
0.0
 10
125.148871
 20
235.580954
 30
0.0
 10
125.199981
 20
235.969182
 30
0.0
 10
125.349830
 20
236.330954
 30
0.0
 10
125.588209
 20
236.641613
 30
0.0
 10
125.898870
 20
236.879992
 30
0.0
 10
126.260643
 20
237.029841
 30
0.0
 10
126.648870
 20
237.080954
 30
0.0
 10
127.037101
 20
237.029841
 30
0.0
 10
127.398870
 20
236.879992
 30
0.0
 10
127.709532
 20
236.641613
 30
0.0
 10
127.947905
 20
236.330954
 30
0.0
 10
128.097754
 20
235.969182
 30
0.0
 10
128.148870
 20
235.580954
 30
0.0
  0
LWPOLYLINE
  5
10d
100
AcDbEntity
  8
Layer_1
 62
7
100
AcDbPolyline
 90
25
 70
1
 10
124.960662
 20
284.671246
 30
0.0
 10
124.714246
 20
284.366917
 30
0.0
 10
124.397468
 20
284.136739
 30
0.0
 10
124.031906
 20
283.996387
 30
0.0
 10
123.642470
 20
283.955443
 30
0.0
 10
123.255713
 20
284.016682
 30
0.0
 10
122.897979
 20
284.175931
 30
0.0
 10
122.593650
 20
284.422345
 30
0.0
 10
122.363470
 20
284.739126
 30
0.0
 10
122.223126
 20
285.104688
 30
0.0
 10
122.182173
 20
285.494121
 30
0.0
 10
122.243415
 20
285.880878
 30
0.0
 10
122.402662
 20
286.238615
 30
0.0
 10
122.649076
 20
286.542943
 30
0.0
 10
122.965865
 20
286.773121
 30
0.0
 10
123.331427
 20
286.913464
 30
0.0
 10
123.720854
 20
286.954418
 30
0.0
 10
124.107617
 20
286.893178
 30
0.0
 10
124.465345
 20
286.733929
 30
0.0
 10
124.769674
 20
286.487515
 30
0.0
 10
124.999854
 20
286.170726
 30
0.0
 10
125.140204
 20
285.805164
 30
0.0
 10
125.181151
 20
285.415737
 30
0.0
 10
125.119909
 20
285.028974
 30
0.0
 10
124.960662
 20
284.671246
 30
0.0
  0
LWPOLYLINE
  5
10e
100
AcDbEntity
  8
Layer_1
 62
7
100
AcDbPolyline
 90
25
 70
1
 10
24.875103
 20
217.210904
 30
0.0
 10
25.179268
 20
216.964298
 30
0.0
 10
25.536897
 20
216.804814
 30
0.0
 10
25.923618
 20
216.743318
 30
0.0
 10
26.313076
 20
216.784014
 30
0.0
 10
26.678729
 20
216.924138
 30
0.0
 10
26.995662
 20
217.154121
 30
0.0
 10
27.242273
 20
217.458272
 30
0.0
 10
27.401756
 20
217.815904
 30
0.0
 10
27.463245
 20
218.202633
 30
0.0
 10
27.422548
 20
218.592071
 30
0.0
 10
27.282438
 20
218.957746
 30
0.0
 10
27.052463
 20
219.274682
 30
0.0
 10
26.748298
 20
219.521288
 30
0.0
 10
26.390668
 20
219.680772
 30
0.0
 10
26.003948
 20
219.742240
 30
0.0
 10
25.614490
 20
219.701543
 30
0.0
 10
25.248836
 20
219.561448
 30
0.0
 10
24.931903
 20
219.331465
 30
0.0
 10
24.685293
 20
219.027314
 30
0.0
 10
24.525810
 20
218.669682
 30
0.0
 10
24.464321
 20
218.282953
 30
0.0
 10
24.505018
 20
217.893486
 30
0.0
 10
24.645128
 20
217.527839
 30
0.0
 10
24.875103
 20
217.210904
 30
0.0
  0
LWPOLYLINE
  5
10f
100
AcDbEntity
  8
Layer_1
 62
7
100
AcDbPolyline
 90
27
 70
1
 10
117.467397
 20
250.025096
 30
0.0
 10
117.829169
 20
250.174950
 30
0.0
 10
118.139831
 20
250.413332
 30
0.0
 10
118.378210
 20
250.723988
 30
0.0
 10
118.528059
 20
251.085761
 30
0.0
 10
118.579169
 20
251.473980
 30
0.0
 10
118.528059
 20
251.862216
 30
0.0
 10
118.378210
 20
252.223983
 30
0.0
 10
118.139831
 20
252.534644
 30
0.0
 10
117.829169
 20
252.773020
 30
0.0
 10
117.467397
 20
252.922872
 30
0.0
 10
117.079169
 20
252.973915
 30
0.0
 10
102.114440
 20
252.973632
 30
0.0
 10
101.725118
 20
252.931663
 30
0.0
 10
101.359922
 20
252.790360
 30
0.0
 10
101.043746
 20
252.559358
 30
0.0
 10
100.798125
 20
252.254392
 30
0.0
 10
100.639807
 20
251.896241
 30
0.0
 10
100.579580
 20
251.509317
 30
0.0
 10
100.621550
 20
251.119991
 30
0.0
 10
100.762853
 20
250.754799
 30
0.0
 10
100.993866
 20
250.438619
 30
0.0
 10
101.298835
 20
250.193001
 30
0.0
 10
101.656981
 20
250.034689
 30
0.0
 10
102.043899
 20
249.974463
 30
0.0
 10
117.079169
 20
249.974180
 30
0.0
 10
117.467397
 20
250.025096
 30
0.0
  0
LWPOLYLINE
  5
110
100
AcDbEntity
  8
Layer_1
 62
7
100
AcDbPolyline
 90
25
 70
1
 10
122.344476
 20
218.410715
 30
0.0
 10
122.574654
 20
218.727481
 30
0.0
 10
122.878977
 20
218.973890
 30
0.0
 10
123.236711
 20
219.133148
 30
0.0
 10
123.623476
 20
219.194390
 30
0.0
 10
124.012904
 20
219.153439
 30
0.0
 10
124.378466
 20
219.013090
 30
0.0
 10
124.695252
 20
218.782910
 30
0.0
 10
124.941666
 20
218.478590
 30
0.0
 10
125.100915
 20
218.120845
 30
0.0
 10
125.162158
 20
217.734087
 30
0.0
 10
125.121202
 20
217.344649
 30
0.0
 10
124.980858
 20
216.979086
 30
0.0
 10
124.750680
 20
216.662320
 30
0.0
 10
124.446352
 20
216.415912
 30
0.0
 10
124.088615
 20
216.256654
 30
0.0
 10
123.701861
 20
216.195412
 30
0.0
 10
123.312425
 20
216.236362
 30
0.0
 10
122.946863
 20
216.376711
 30
0.0
 10
122.630082
 20
216.606892
 30
0.0
 10
122.383669
 20
216.911212
 30
0.0
 10
122.224413
 20
217.268957
 30
0.0
 10
122.163180
 20
217.655714
 30
0.0
 10
122.204124
 20
218.045153
 30
0.0
 10
122.344476
 20
218.410715
 30
0.0
  0
LWPOLYLINE
  5
111
100
AcDbEntity
  8
Layer_1
 62
7
100
AcDbPolyline
 90
27
 70
1
 10
82.537955
 20
260.802539
 30
0.0
 10
82.669036
 20
261.171528
 30
0.0
 10
82.891142
 20
261.494017
 30
0.0
 10
89.944205
 20
268.549883
 30
0.0
 10
90.254867
 20
268.788259
 30
0.0
 10
90.616636
 20
268.938110
 30
0.0
 10
91.004867
 20
268.989221
 30
0.0
 10
91.393095
 20
268.938110
 30
0.0
 10
91.754867
 20
268.788259
 30
0.0
 10
92.065526
 20
268.549883
 30
0.0
 10
92.303908
 20
268.239222
 30
0.0
 10
92.453756
 20
267.877452
 30
0.0
 10
92.504867
 20
267.489222
 30
0.0
 10
92.453756
 20
267.100991
 30
0.0
 10
92.303908
 20
266.739222
 30
0.0
 10
92.065526
 20
266.428560
 30
0.0
 10
85.118589
 20
259.484420
 30
0.0
 10
84.820577
 20
259.230406
 30
0.0
 10
84.466978
 20
259.062173
 30
0.0
 10
84.081885
 20
258.991197
 30
0.0
 10
83.691549
 20
259.022307
 30
0.0
 10
83.322561
 20
259.153385
 30
0.0
 10
83.000068
 20
259.375494
 30
0.0
 10
82.746054
 20
259.673506
 30
0.0
 10
82.577827
 20
260.027105
 30
0.0
 10
82.506848
 20
260.412200
 30
0.0
 10
82.537955
 20
260.802539
 30
0.0
  0
LWPOLYLINE
  5
112
100
AcDbEntity
  8
Layer_1
 62
7
100
AcDbPolyline
 90
25
 70
1
 10
54.678842
 20
228.961655
 30
0.0
 10
54.437661
 20
229.061556
 30
0.0
 10
54.230555
 20
229.220473
 30
0.0
 10
54.071636
 20
229.427581
 30
0.0
 10
53.971735
 20
229.668763
 30
0.0
 10
53.937662
 20
229.927580
 30
0.0
 10
53.971735
 20
230.186401
 30
0.0
 10
54.071636
 20
230.427582
 30
0.0
 10
54.230555
 20
230.634688
 30
0.0
 10
54.437661
 20
230.793607
 30
0.0
 10
54.678842
 20
230.893506
 30
0.0
 10
54.937663
 20
230.927581
 30
0.0
 10
55.196483
 20
230.893506
 30
0.0
 10
55.437662
 20
230.793607
 30
0.0
 10
55.644765
 20
230.634688
 30
0.0
 10
55.803687
 20
230.427582
 30
0.0
 10
55.903585
 20
230.186401
 30
0.0
 10
55.937664
 20
229.927580
 30
0.0
 10
55.903585
 20
229.668763
 30
0.0
 10
55.803687
 20
229.427581
 30
0.0
 10
55.644765
 20
229.220473
 30
0.0
 10
55.437662
 20
229.061556
 30
0.0
 10
55.196483
 20
228.961655
 30
0.0
 10
54.937663
 20
228.927582
 30
0.0
 10
54.678842
 20
228.961655
 30
0.0
  0
LWPOLYLINE
  5
113
100
AcDbEntity
  8
Layer_1
 62
7
100
AcDbPolyline
 90
25
 70
1
 10
24.950904
 20
283.818356
 30
0.0
 10
25.267835
 20
283.588384
 30
0.0
 10
25.633491
 20
283.448278
 30
0.0
 10
26.022949
 20
283.407573
 30
0.0
 10
26.409669
 20
283.469066
 30
0.0
 10
26.767297
 20
283.628553
 30
0.0
 10
27.071464
 20
283.875156
 30
0.0
 10
27.301437
 20
284.192089
 30
0.0
 10
27.441547
 20
284.557744
 30
0.0
 10
27.482246
 20
284.947202
 30
0.0
 10
27.420757
 20
285.333929
 30
0.0
 10
27.261272
 20
285.691555
 30
0.0
 10
27.014661
 20
285.995717
 30
0.0
 10
26.697731
 20
286.225697
 30
0.0
 10
26.332077
 20
286.365804
 30
0.0
 10
25.942617
 20
286.406500
 30
0.0
 10
25.555896
 20
286.345012
 30
0.0
 10
25.198268
 20
286.185529
 30
0.0
 10
24.894102
 20
285.938917
 30
0.0
 10
24.664129
 20
285.621985
 30
0.0
 10
24.524019
 20
285.256329
 30
0.0
 10
24.483322
 20
284.866871
 30
0.0
 10
24.544809
 20
284.480153
 30
0.0
 10
24.704294
 20
284.122527
 30
0.0
 10
24.950904
 20
283.818356
 30
0.0
  0
LWPOLYLINE
  5
114
100
AcDbEntity
  8
Layer_1
 62
7
100
AcDbPolyline
 90
27
 70
1
 10
67.453756
 20
242.100993
 30
0.0
 10
67.303904
 20
241.739221
 30
0.0
 10
67.065528
 20
241.428562
 30
0.0
 10
60.065528
 20
234.428212
 30
0.0
 10
59.754866
 20
234.189833
 30
0.0
 10
59.393097
 20
234.039984
 30
0.0
 10
59.004866
 20
233.988871
 30
0.0
 10
58.616641
 20
234.039984
 30
0.0
 10
58.254866
 20
234.189833
 30
0.0
 10
57.944207
 20
234.428212
 30
0.0
 10
57.705828
 20
234.738871
 30
0.0
 10
57.555979
 20
235.100643
 30
0.0
 10
57.504866
 20
235.488871
 30
0.0
 10
57.555979
 20
235.877099
 30
0.0
 10
57.705828
 20
236.238871
 30
0.0
 10
57.944207
 20
236.549532
 30
0.0
 10
64.944207
 20
243.549883
 30
0.0
 10
65.254866
 20
243.788259
 30
0.0
 10
65.616641
 20
243.938110
 30
0.0
 10
66.004866
 20
243.989221
 30
0.0
 10
66.393094
 20
243.938110
 30
0.0
 10
66.754866
 20
243.788259
 30
0.0
 10
67.065528
 20
243.549883
 30
0.0
 10
67.303904
 20
243.239221
 30
0.0
 10
67.453756
 20
242.877451
 30
0.0
 10
67.504866
 20
242.489221
 30
0.0
 10
67.453756
 20
242.100993
 30
0.0
  0
LWPOLYLINE
  5
115
100
AcDbEntity
  8
Layer_1
 62
7
100
AcDbPolyline
 90
27
 70
1
 10
59.393097
 20
268.938110
 30
0.0
 10
59.754866
 20
268.788259
 30
0.0
 10
60.065528
 20
268.549883
 30
0.0
 10
67.065528
 20
261.549880
 30
0.0
 10
67.303904
 20
261.239219
 30
0.0
 10
67.453756
 20
260.877446
 30
0.0
 10
67.504866
 20
260.489219
 30
0.0
 10
67.453756
 20
260.100988
 30
0.0
 10
67.303904
 20
259.739219
 30
0.0
 10
67.065528
 20
259.428557
 30
0.0
 10
66.754866
 20
259.190181
 30
0.0
 10
66.393094
 20
259.040332
 30
0.0
 10
66.004866
 20
258.989219
 30
0.0
 10
65.616641
 20
259.040332
 30
0.0
 10
65.254866
 20
259.190181
 30
0.0
 10
64.944207
 20
259.428557
 30
0.0
 10
57.944207
 20
266.428560
 30
0.0
 10
57.705828
 20
266.739222
 30
0.0
 10
57.555979
 20
267.100991
 30
0.0
 10
57.504866
 20
267.489222
 30
0.0
 10
57.555979
 20
267.877452
 30
0.0
 10
57.705828
 20
268.239222
 30
0.0
 10
57.944207
 20
268.549883
 30
0.0
 10
58.254866
 20
268.788259
 30
0.0
 10
58.616641
 20
268.938110
 30
0.0
 10
59.004866
 20
268.989221
 30
0.0
 10
59.393097
 20
268.938110
 30
0.0
  0
LWPOLYLINE
  5
116
100
AcDbEntity
  8
Layer_1
 62
7
100
AcDbPolyline
 90
27
 70
1
 10
117.407171
 20
233.987076
 30
0.0
 10
117.768943
 20
234.136928
 30
0.0
 10
118.079605
 20
234.375307
 30
0.0
 10
118.317984
 20
234.685966
 30
0.0
 10
118.467832
 20
235.047738
 30
0.0
 10
118.518943
 20
235.435965
 30
0.0
 10
118.467832
 20
235.824196
 30
0.0
 10
118.317984
 20
236.185965
 30
0.0
 10
118.079605
 20
236.496627
 30
0.0
 10
117.768943
 20
236.735003
 30
0.0
 10
117.407171
 20
236.884855
 30
0.0
 10
117.018943
 20
236.935900
 30
0.0
 10
102.054214
 20
236.935618
 30
0.0
 10
101.664891
 20
236.893649
 30
0.0
 10
101.299696
 20
236.752346
 30
0.0
 10
100.983519
 20
236.521338
 30
0.0
 10
100.737899
 20
236.216369
 30
0.0
 10
100.579580
 20
235.858221
 30
0.0
 10
100.519363
 20
235.471302
 30
0.0
 10
100.561323
 20
235.081980
 30
0.0
 10
100.702626
 20
234.716784
 30
0.0
 10
100.933637
 20
234.400605
 30
0.0
 10
101.238609
 20
234.154987
 30
0.0
 10
101.596754
 20
233.996672
 30
0.0
 10
101.983673
 20
233.936448
 30
0.0
 10
117.018943
 20
233.936166
 30
0.0
 10
117.407171
 20
233.987076
 30
0.0
  0
LWPOLYLINE
  5
117
100
AcDbEntity
  8
Layer_1
 62
7
100
AcDbPolyline
 90
27
 70
1
 10
51.893095
 20
252.938112
 30
0.0
 10
52.254867
 20
252.788260
 30
0.0
 10
52.565526
 20
252.549881
 30
0.0
 10
52.803905
 20
252.239223
 30
0.0
 10
52.953756
 20
251.877450
 30
0.0
 10
53.004867
 20
251.489223
 30
0.0
 10
52.953756
 20
251.100992
 30
0.0
 10
52.803905
 20
250.739220
 30
0.0
 10
52.565526
 20
250.428561
 30
0.0
 10
52.254867
 20
250.190185
 30
0.0
 10
51.893095
 20
250.040333
 30
0.0
 10
51.504867
 20
249.989291
 30
0.0
 10
36.469597
 20
249.989573
 30
0.0
 10
36.082678
 20
250.049799
 30
0.0
 10
35.724530
 20
250.208112
 30
0.0
 10
35.419563
 20
250.453730
 30
0.0
 10
35.188553
 20
250.769912
 30
0.0
 10
35.047253
 20
251.135101
 30
0.0
 10
35.005284
 20
251.524427
 30
0.0
 10
35.065510
 20
251.911348
 30
0.0
 10
35.223825
 20
252.269494
 30
0.0
 10
35.469443
 20
252.574463
 30
0.0
 10
35.785620
 20
252.805470
 30
0.0
 10
36.150815
 20
252.946776
 30
0.0
 10
36.540135
 20
252.988740
 30
0.0
 10
51.504867
 20
252.989022
 30
0.0
 10
51.893095
 20
252.938112
 30
0.0
  0
LWPOLYLINE
  5
118
100
AcDbEntity
  8
Layer_1
 62
7
100
AcDbPolyline
 90
25
 70
1
 10
94.037596
 20
273.670083
 30
0.0
 10
94.181052
 20
273.888189
 30
0.0
 10
94.376059
 20
274.061734
 30
0.0
 10
94.609350
 20
274.178896
 30
0.0
 10
94.865004
 20
274.231682
 30
0.0
 10
95.125616
 20
274.216502
 30
0.0
 10
95.373419
 20
274.134391
 30
0.0
 10
95.591528
 20
273.990940
 30
0.0
 10
95.765075
 20
273.795924
 30
0.0
 10
95.882231
 20
273.562639
 30
0.0
 10
95.935018
 20
273.306984
 30
0.0
 10
95.919835
 20
273.046371
 30
0.0
 10
95.837725
 20
272.798568
 30
0.0
 10
95.694271
 20
272.580461
 30
0.0
 10
95.499256
 20
272.406917
 30
0.0
 10
95.265971
 20
272.289761
 30
0.0
 10
95.010311
 20
272.236968
 30
0.0
 10
94.749705
 20
272.252151
 30
0.0
 10
94.501902
 20
272.334262
 30
0.0
 10
94.283792
 20
272.477711
 30
0.0
 10
94.110248
 20
272.672728
 30
0.0
 10
93.993092
 20
272.906012
 30
0.0
 10
93.940303
 20
273.161675
 30
0.0
 10
93.955486
 20
273.422282
 30
0.0
 10
94.037596
 20
273.670083
 30
0.0
  0
LWPOLYLINE
  5
119
100
AcDbEntity
  8
Layer_1
 62
7
100
AcDbPolyline
 90
27
 70
1
 10
83.254867
 20
243.788259
 30
0.0
 10
83.616636
 20
243.938110
 30
0.0
 10
84.004867
 20
243.989221
 30
0.0
 10
84.393095
 20
243.938110
 30
0.0
 10
84.754867
 20
243.788259
 30
0.0
 10
85.065529
 20
243.549883
 30
0.0
 10
92.065526
 20
236.549532
 30
0.0
 10
92.303908
 20
236.238871
 30
0.0
 10
92.453756
 20
235.877099
 30
0.0
 10
92.504867
 20
235.488871
 30
0.0
 10
92.453756
 20
235.100643
 30
0.0
 10
92.303908
 20
234.738871
 30
0.0
 10
92.065526
 20
234.428212
 30
0.0
 10
91.754867
 20
234.189833
 30
0.0
 10
91.393095
 20
234.039984
 30
0.0
 10
91.004867
 20
233.988871
 30
0.0
 10
90.616636
 20
234.039984
 30
0.0
 10
90.254867
 20
234.189833
 30
0.0
 10
89.944205
 20
234.428212
 30
0.0
 10
82.944205
 20
241.428562
 30
0.0
 10
82.705832
 20
241.739221
 30
0.0
 10
82.555975
 20
242.100993
 30
0.0
 10
82.504867
 20
242.489221
 30
0.0
 10
82.555975
 20
242.877451
 30
0.0
 10
82.705832
 20
243.239221
 30
0.0
 10
82.944205
 20
243.549883
 30
0.0
 10
83.254867
 20
243.788259
 30
0.0
  0
LWPOLYLINE
  5
11a
100
AcDbEntity
  8
Layer_1
 62
7
100
AcDbPolyline
 90
25
 70
1
 10
127.947905
 20
266.830952
 30
0.0
 10
127.709532
 20
266.520291
 30
0.0
 10
127.398870
 20
266.281915
 30
0.0
 10
127.037101
 20
266.132063
 30
0.0
 10
126.648870
 20
266.080953
 30
0.0
 10
126.260643
 20
266.132063
 30
0.0
 10
125.898870
 20
266.281915
 30
0.0
 10
125.588209
 20
266.520291
 30
0.0
 10
125.349830
 20
266.830952
 30
0.0
 10
125.199981
 20
267.192725
 30
0.0
 10
125.148871
 20
267.580952
 30
0.0
 10
125.199981
 20
267.969183
 30
0.0
 10
125.349830
 20
268.330952
 30
0.0
 10
125.588209
 20
268.641614
 30
0.0
 10
125.898870
 20
268.879989
 30
0.0
 10
126.260643
 20
269.029838
 30
0.0
 10
126.648870
 20
269.080951
 30
0.0
 10
127.037101
 20
269.029838
 30
0.0
 10
127.398870
 20
268.879989
 30
0.0
 10
127.709532
 20
268.641614
 30
0.0
 10
127.947905
 20
268.330952
 30
0.0
 10
128.097754
 20
267.969183
 30
0.0
 10
128.148870
 20
267.580952
 30
0.0
 10
128.097754
 20
267.192725
 30
0.0
 10
127.947905
 20
266.830952
 30
0.0
  0
LWPOLYLINE
  5
11b
100
AcDbEntity
  8
Layer_1
 62
7
100
AcDbPolyline
 90
5
 70
1
 10
41.671181
 20
216.780408
 30
0.0
 10
61.671181
 20
216.780408
 30
0.0
 10
61.671181
 20
196.780408
 30
0.0
 10
41.671181
 20
196.780408
 30
0.0
 10
41.671181
 20
216.780408
 30
0.0
  0
LWPOLYLINE
  5
11c
100
AcDbEntity
  8
Layer_1
 62
7
100
AcDbPolyline
 90
2
 70
1
 10
203.158262
 20
136.951879
 30
0.0
 10
203.158262
 20
136.951879
 30
0.0
  0
LWPOLYLINE
  5
11d
100
AcDbEntity
  8
Layer_1
 62
7
100
AcDbPolyline
 90
25
 70
1
 10
169.375633
 20
122.363818
 30
0.0
 10
169.763666
 20
122.414929
 30
0.0
 10
170.125266
 20
122.564704
 30
0.0
 10
170.435784
 20
122.802956
 30
0.0
 10
170.674050
 20
123.113485
 30
0.0
 10
170.823831
 20
123.475068
 30
0.0
 10
170.874916
 20
123.863124
 30
0.0
 10
170.823831
 20
124.251151
 30
0.0
 10
170.674050
 20
124.612763
 30
0.0
 10
170.435784
 20
124.923263
 30
0.0
 10
170.125266
 20
125.161544
 30
0.0
 10
169.763666
 20
125.311319
 30
0.0
 10
169.375633
 20
125.362401
 30
0.0
 10
168.987586
 20
125.311319
 30
0.0
 10
168.625983
 20
125.161544
 30
0.0
 10
168.315468
 20
124.923263
 30
0.0
 10
168.077202
 20
124.612763
 30
0.0
 10
167.927421
 20
124.251151
 30
0.0
 10
167.876336
 20
123.863124
 30
0.0
 10
167.927421
 20
123.475068
 30
0.0
 10
168.077202
 20
123.113485
 30
0.0
 10
168.315468
 20
122.802956
 30
0.0
 10
168.625983
 20
122.564704
 30
0.0
 10
168.987586
 20
122.414929
 30
0.0
 10
169.375633
 20
122.363818
 30
0.0
  0
LWPOLYLINE
  5
11e
100
AcDbEntity
  8
Layer_1
 62
7
100
AcDbPolyline
 90
25
 70
1
 10
9.482966
 20
172.348394
 30
0.0
 10
9.585188
 20
171.571935
 30
0.0
 10
9.884889
 20
170.848394
 30
0.0
 10
10.361645
 20
170.227073
 30
0.0
 10
10.982966
 20
169.750318
 30
0.0
 10
11.706509
 20
169.450618
 30
0.0
 10
12.482966
 20
169.348394
 30
0.0
 10
13.259422
 20
169.450618
 30
0.0
 10
13.982966
 20
169.750318
 30
0.0
 10
14.604285
 20
170.227073
 30
0.0
 10
15.081042
 20
170.848394
 30
0.0
 10
15.380743
 20
171.571935
 30
0.0
 10
15.482966
 20
172.348394
 30
0.0
 10
15.380743
 20
173.124849
 30
0.0
 10
15.081042
 20
173.848394
 30
0.0
 10
14.604285
 20
174.469714
 30
0.0
 10
13.982966
 20
174.946469
 30
0.0
 10
13.259422
 20
175.246172
 30
0.0
 10
12.482966
 20
175.348393
 30
0.0
 10
11.706509
 20
175.246172
 30
0.0
 10
10.982966
 20
174.946469
 30
0.0
 10
10.361645
 20
174.469714
 30
0.0
 10
9.884889
 20
173.848394
 30
0.0
 10
9.585188
 20
173.124849
 30
0.0
 10
9.482966
 20
172.348394
 30
0.0
  0
LWPOLYLINE
  5
11f
100
AcDbEntity
  8
Layer_1
 62
7
100
AcDbPolyline
 90
27
 70
1
 10
129.974611
 20
164.356603
 30
0.0
 10
129.702171
 20
164.801992
 30
0.0
 10
129.323739
 20
165.161695
 30
0.0
 10
128.865114
 20
165.411196
 30
0.0
 10
128.357529
 20
165.533486
 30
0.0
 10
127.835595
 20
165.520250
 30
0.0
 10
127.334871
 20
165.372374
 30
0.0
 10
126.889482
 20
165.099934
 30
0.0
 10
126.529778
 20
164.721505
 30
0.0
 10
126.280280
 20
164.262871
 30
0.0
 10
124.034333
 20
158.192088
 30
0.0
 10
123.890399
 20
157.690215
 30
0.0
 10
123.881255
 20
157.168191
 30
0.0
 10
124.007539
 20
156.661588
 30
0.0
 10
124.260636
 20
156.204930
 30
0.0
 10
124.623305
 20
155.829343
 30
0.0
 10
125.070825
 20
155.560413
 30
0.0
 10
125.572692
 20
155.416477
 30
0.0
 10
126.094719
 20
155.407333
 30
0.0
 10
126.601319
 20
155.533616
 30
0.0
 10
127.057977
 20
155.786716
 30
0.0
 10
127.433564
 20
156.149383
 30
0.0
 10
127.702491
 20
156.596897
 30
0.0
 10
130.013436
 20
162.826365
 30
0.0
 10
130.135726
 20
163.333945
 30
0.0
 10
130.122490
 20
163.855878
 30
0.0
 10
129.974611
 20
164.356603
 30
0.0
  0
LWPOLYLINE
  5
120
100
AcDbEntity
  8
Layer_1
 62
7
100
AcDbPolyline
 90
25
 70
1
 10
40.763055
 20
183.276027
 30
0.0
 10
40.384995
 20
183.174020
 30
0.0
 10
40.046216
 20
182.977642
 30
0.0
 10
39.769813
 20
182.700265
 30
0.0
 10
39.574620
 20
182.360811
 30
0.0
 10
39.473993
 20
181.982394
 30
0.0
 10
39.474558
 20
181.590822
 30
0.0
 10
39.576556
 20
181.212762
 30
0.0
 10
39.772932
 20
180.873988
 30
0.0
 10
40.050302
 20
180.597583
 30
0.0
 10
40.389762
 20
180.402384
 30
0.0
 10
40.768174
 20
180.301698
 30
0.0
 10
41.159755
 20
180.302319
 30
0.0
 10
41.537814
 20
180.404389
 30
0.0
 10
41.876596
 20
180.600770
 30
0.0
 10
42.153002
 20
180.878136
 30
0.0
 10
42.348195
 20
181.217598
 30
0.0
 10
42.448872
 20
181.596010
 30
0.0
 10
42.448308
 20
181.987588
 30
0.0
 10
42.346242
 20
182.365647
 30
0.0
 10
42.149861
 20
182.704424
 30
0.0
 10
41.872496
 20
182.980821
 30
0.0
 10
41.533036
 20
183.176020
 30
0.0
 10
41.154627
 20
183.276651
 30
0.0
 10
40.763055
 20
183.276027
 30
0.0
  0
LWPOLYLINE
  5
121
100
AcDbEntity
  8
Layer_1
 62
7
100
AcDbPolyline
 90
27
 70
1
 10
93.377831
 20
170.505717
 30
0.0
 10
93.527680
 20
170.143945
 30
0.0
 10
93.766059
 20
169.833289
 30
0.0
 10
94.076721
 20
169.594907
 30
0.0
 10
94.438493
 20
169.445058
 30
0.0
 10
94.826720
 20
169.393945
 30
0.0
 10
110.213197
 20
169.393945
 30
0.0
 10
110.601424
 20
169.445058
 30
0.0
 10
110.963196
 20
169.594907
 30
0.0
 10
111.273850
 20
169.833289
 30
0.0
 10
111.512229
 20
170.143945
 30
0.0
 10
111.662080
 20
170.505717
 30
0.0
 10
111.713196
 20
170.893947
 30
0.0
 10
111.662080
 20
171.282175
 30
0.0
 10
111.512229
 20
171.643947
 30
0.0
 10
111.273850
 20
171.954606
 30
0.0
 10
110.963196
 20
172.192985
 30
0.0
 10
110.601424
 20
172.342837
 30
0.0
 10
110.213197
 20
172.393944
 30
0.0
 10
94.826720
 20
172.393944
 30
0.0
 10
94.438493
 20
172.342837
 30
0.0
 10
94.076721
 20
172.192985
 30
0.0
 10
93.766059
 20
171.954606
 30
0.0
 10
93.527680
 20
171.643947
 30
0.0
 10
93.377831
 20
171.282175
 30
0.0
 10
93.326721
 20
170.893947
 30
0.0
 10
93.377831
 20
170.505717
 30
0.0
  0
LWPOLYLINE
  5
122
100
AcDbEntity
  8
Layer_1
 62
7
100
AcDbPolyline
 90
25
 70
1
 10
64.465787
 20
171.260644
 30
0.0
 10
64.942542
 20
170.639326
 30
0.0
 10
65.242245
 20
169.915782
 30
0.0
 10
65.344466
 20
169.139327
 30
0.0
 10
65.242245
 20
168.362868
 30
0.0
 10
64.942542
 20
167.639327
 30
0.0
 10
64.465787
 20
167.018003
 30
0.0
 10
63.844466
 20
166.541251
 30
0.0
 10
63.120922
 20
166.241548
 30
0.0
 10
62.344467
 20
166.139327
 30
0.0
 10
61.568008
 20
166.241548
 30
0.0
 10
60.844467
 20
166.541251
 30
0.0
 10
60.223143
 20
167.018003
 30
0.0
 10
59.746388
 20
167.639327
 30
0.0
 10
59.446691
 20
168.362868
 30
0.0
 10
59.344467
 20
169.139327
 30
0.0
 10
59.446691
 20
169.915782
 30
0.0
 10
59.746388
 20
170.639326
 30
0.0
 10
60.223143
 20
171.260644
 30
0.0
 10
60.844467
 20
171.737402
 30
0.0
 10
61.568008
 20
172.037103
 30
0.0
 10
62.344467
 20
172.139326
 30
0.0
 10
63.120922
 20
172.037103
 30
0.0
 10
63.844466
 20
171.737402
 30
0.0
 10
64.465787
 20
171.260644
 30
0.0
  0
LWPOLYLINE
  5
123
100
AcDbEntity
  8
Layer_1
 62
7
100
AcDbPolyline
 90
25
 70
1
 10
200.136086
 20
150.253622
 30
0.0
 10
199.412544
 20
150.553325
 30
0.0
 10
198.791221
 20
151.030081
 30
0.0
 10
198.314460
 20
151.651398
 30
0.0
 10
198.014762
 20
152.374946
 30
0.0
 10
197.912544
 20
153.151401
 30
0.0
 10
198.033761
 20
153.915780
 30
0.0
 10
198.333459
 20
154.639327
 30
0.0
 10
198.810220
 20
155.260645
 30
0.0
 10
199.431540
 20
155.737403
 30
0.0
 10
200.155082
 20
156.037104
 30
0.0
 10
200.931543
 20
156.139327
 30
0.0
 10
201.708001
 20
156.037104
 30
0.0
 10
202.431543
 20
155.737403
 30
0.0
 10
203.052864
 20
155.260645
 30
0.0
 10
203.529610
 20
154.639327
 30
0.0
 10
203.829322
 20
153.915780
 30
0.0
 10
203.912544
 20
153.151401
 30
0.0
 10
203.810311
 20
152.374946
 30
0.0
 10
203.510614
 20
151.651398
 30
0.0
 10
203.033867
 20
151.030081
 30
0.0
 10
202.412544
 20
150.553325
 30
0.0
 10
201.689002
 20
150.253622
 30
0.0
 10
200.912544
 20
150.151399
 30
0.0
 10
200.136086
 20
150.253622
 30
0.0
  0
LWPOLYLINE
  5
124
100
AcDbEntity
  8
Layer_1
 62
7
100
AcDbPolyline
 90
25
 70
1
 10
154.030282
 20
185.525888
 30
0.0
 10
154.419701
 20
185.566836
 30
0.0
 10
154.785272
 20
185.707185
 30
0.0
 10
155.102058
 20
185.937365
 30
0.0
 10
155.348472
 20
186.241694
 30
0.0
 10
155.507716
 20
186.599422
 30
0.0
 10
155.568966
 20
186.986185
 30
0.0
 10
155.528007
 20
187.375612
 30
0.0
 10
155.387658
 20
187.741183
 30
0.0
 10
155.157478
 20
188.057963
 30
0.0
 10
154.853158
 20
188.304377
 30
0.0
 10
154.495415
 20
188.463624
 30
0.0
 10
154.108667
 20
188.524866
 30
0.0
 10
153.719231
 20
188.483913
 30
0.0
 10
153.353663
 20
188.343570
 30
0.0
 10
153.036891
 20
188.113389
 30
0.0
 10
152.790474
 20
187.809060
 30
0.0
 10
152.631222
 20
187.451335
 30
0.0
 10
152.569988
 20
187.064569
 30
0.0
 10
152.610927
 20
186.675142
 30
0.0
 10
152.751276
 20
186.309571
 30
0.0
 10
152.981457
 20
185.992791
 30
0.0
 10
153.285777
 20
185.746377
 30
0.0
 10
153.643519
 20
185.587131
 30
0.0
 10
154.030282
 20
185.525888
 30
0.0
  0
LWPOLYLINE
  5
125
100
AcDbEntity
  8
Layer_1
 62
7
100
AcDbPolyline
 90
27
 70
1
 10
111.544586
 20
141.754455
 30
0.0
 10
111.272156
 20
141.309066
 30
0.0
 10
110.893722
 20
140.949362
 30
0.0
 10
110.435088
 20
140.699864
 30
0.0
 10
109.927514
 20
140.577571
 30
0.0
 10
109.405578
 20
140.590808
 30
0.0
 10
108.904854
 20
140.738686
 30
0.0
 10
108.459456
 20
141.011124
 30
0.0
 10
108.099761
 20
141.389553
 30
0.0
 10
107.850257
 20
141.848187
 30
0.0
 10
105.604316
 20
147.918970
 30
0.0
 10
105.460380
 20
148.420846
 30
0.0
 10
105.451236
 20
148.942867
 30
0.0
 10
105.577519
 20
149.449470
 30
0.0
 10
105.830618
 20
149.906128
 30
0.0
 10
106.193280
 20
150.281718
 30
0.0
 10
106.640797
 20
150.550644
 30
0.0
 10
107.142675
 20
150.694583
 30
0.0
 10
107.664693
 20
150.703727
 30
0.0
 10
108.171299
 20
150.577441
 30
0.0
 10
108.627957
 20
150.324342
 30
0.0
 10
109.003544
 20
149.961680
 30
0.0
 10
109.272474
 20
149.514163
 30
0.0
 10
111.583411
 20
143.284695
 30
0.0
 10
111.705709
 20
142.777115
 30
0.0
 10
111.692473
 20
142.255179
 30
0.0
 10
111.544586
 20
141.754455
 30
0.0
  0
LWPOLYLINE
  5
126
100
AcDbEntity
  8
Layer_1
 62
7
100
AcDbPolyline
 90
25
 70
1
 10
152.612220
 20
118.839399
 30
0.0
 10
152.771478
 20
118.481654
 30
0.0
 10
153.017875
 20
118.177334
 30
0.0
 10
153.334664
 20
117.947153
 30
0.0
 10
153.700235
 20
117.806804
 30
0.0
 10
154.089653
 20
117.765854
 30
0.0
 10
154.476419
 20
117.827096
 30
0.0
 10
154.834161
 20
117.986354
 30
0.0
 10
155.138481
 20
118.232762
 30
0.0
 10
155.368659
 20
118.549557
 30
0.0
 10
155.509011
 20
118.915119
 30
0.0
 10
155.549950
 20
119.304529
 30
0.0
 10
155.488716
 20
119.691315
 30
0.0
 10
155.329461
 20
120.049032
 30
0.0
 10
155.083047
 20
120.353352
 30
0.0
 10
154.766273
 20
120.583532
 30
0.0
 10
154.400705
 20
120.723881
 30
0.0
 10
154.011269
 20
120.764832
 30
0.0
 10
153.624520
 20
120.703590
 30
0.0
 10
153.266778
 20
120.544360
 30
0.0
 10
152.962455
 20
120.297923
 30
0.0
 10
152.732277
 20
119.981157
 30
0.0
 10
152.591928
 20
119.615595
 30
0.0
 10
152.550972
 20
119.226156
 30
0.0
 10
152.612220
 20
118.839399
 30
0.0
  0
LWPOLYLINE
  5
127
100
AcDbEntity
  8
Layer_1
 62
7
100
AcDbPolyline
 90
27
 70
1
 10
130.151590
 20
169.445058
 30
0.0
 10
129.789818
 20
169.594907
 30
0.0
 10
129.479156
 20
169.833289
 30
0.0
 10
129.240777
 20
170.143945
 30
0.0
 10
129.090928
 20
170.505717
 30
0.0
 10
129.039818
 20
170.893947
 30
0.0
 10
129.090928
 20
171.282175
 30
0.0
 10
129.240777
 20
171.643947
 30
0.0
 10
129.479156
 20
171.954606
 30
0.0
 10
129.789818
 20
172.192985
 30
0.0
 10
130.151590
 20
172.342837
 30
0.0
 10
130.539818
 20
172.393944
 30
0.0
 10
145.609262
 20
172.393944
 30
0.0
 10
145.997490
 20
172.342837
 30
0.0
 10
146.359262
 20
172.192985
 30
0.0
 10
146.669929
 20
171.954606
 30
0.0
 10
146.908303
 20
171.643947
 30
0.0
 10
147.058160
 20
171.282175
 30
0.0
 10
147.109262
 20
170.893947
 30
0.0
 10
147.058160
 20
170.505717
 30
0.0
 10
146.908303
 20
170.143945
 30
0.0
 10
146.669929
 20
169.833289
 30
0.0
 10
146.359262
 20
169.594907
 30
0.0
 10
145.997490
 20
169.445058
 30
0.0
 10
145.609262
 20
169.393945
 30
0.0
 10
130.539818
 20
169.393945
 30
0.0
 10
130.151590
 20
169.445058
 30
0.0
  0
LWPOLYLINE
  5
128
100
AcDbEntity
  8
Layer_1
 62
7
100
AcDbPolyline
 90
27
 70
1
 10
201.421486
 20
165.197814
 30
0.0
 10
201.732140
 20
165.436193
 30
0.0
 10
201.970513
 20
165.746852
 30
0.0
 10
202.120370
 20
166.108627
 30
0.0
 10
202.171486
 20
166.496852
 30
0.0
 10
202.120370
 20
166.885079
 30
0.0
 10
201.970513
 20
167.246852
 30
0.0
 10
201.732140
 20
167.557513
 30
0.0
 10
201.421486
 20
167.795890
 30
0.0
 10
201.059714
 20
167.945741
 30
0.0
 10
200.671487
 20
167.996852
 30
0.0
 10
191.767723
 20
167.996852
 30
0.0
 10
191.379495
 20
167.945741
 30
0.0
 10
191.017723
 20
167.795890
 30
0.0
 10
190.707069
 20
167.557513
 30
0.0
 10
190.468682
 20
167.246852
 30
0.0
 10
190.318842
 20
166.885079
 30
0.0
 10
190.267723
 20
166.496852
 30
0.0
 10
190.318842
 20
166.108627
 30
0.0
 10
190.468682
 20
165.746852
 30
0.0
 10
190.707069
 20
165.436193
 30
0.0
 10
191.017723
 20
165.197814
 30
0.0
 10
191.379495
 20
165.047965
 30
0.0
 10
191.767723
 20
164.996852
 30
0.0
 10
200.671487
 20
164.996852
 30
0.0
 10
201.059714
 20
165.047965
 30
0.0
 10
201.421486
 20
165.197814
 30
0.0
  0
LWPOLYLINE
  5
129
100
AcDbEntity
  8
Layer_1
 62
7
100
AcDbPolyline
 90
25
 70
1
 10
40.744041
 20
123.014707
 30
0.0
 10
40.365985
 20
123.116703
 30
0.0
 10
40.027211
 20
123.313101
 30
0.0
 10
39.750805
 20
123.590469
 30
0.0
 10
39.555606
 20
123.929926
 30
0.0
 10
39.454980
 20
124.308329
 30
0.0
 10
39.455545
 20
124.699913
 30
0.0
 10
39.557554
 20
125.077978
 30
0.0
 10
39.753935
 20
125.416729
 30
0.0
 10
40.031306
 20
125.693137
 30
0.0
 10
40.370763
 20
125.888351
 30
0.0
 10
40.749175
 20
125.989019
 30
0.0
 10
41.140753
 20
125.988737
 30
0.0
 10
41.518812
 20
125.886403
 30
0.0
 10
41.857583
 20
125.690005
 30
0.0
 10
42.133989
 20
125.412637
 30
0.0
 10
42.329188
 20
125.073180
 30
0.0
 10
42.429876
 20
124.694776
 30
0.0
 10
42.429312
 20
124.303193
 30
0.0
 10
42.327243
 20
123.925128
 30
0.0
 10
42.130864
 20
123.586349
 30
0.0
 10
41.853494
 20
123.309968
 30
0.0
 10
41.514034
 20
123.114755
 30
0.0
 10
41.135619
 20
123.014411
 30
0.0
 10
40.744041
 20
123.014707
 30
0.0
  0
LWPOLYLINE
  5
12a
100
AcDbEntity
  8
Layer_1
 62
7
100
AcDbPolyline
 90
27
 70
1
 10
161.220116
 20
148.874944
 30
0.0
 10
161.519817
 20
148.151400
 30
0.0
 10
161.996577
 20
147.530082
 30
0.0
 10
162.617901
 20
147.053324
 30
0.0
 10
163.341442
 20
146.753621
 30
0.0
 10
164.117901
 20
146.651400
 30
0.0
 10
164.894359
 20
146.753621
 30
0.0
 10
165.617900
 20
147.053324
 30
0.0
 10
166.239221
 20
147.530082
 30
0.0
 10
166.715965
 20
148.151400
 30
0.0
 10
167.015682
 20
148.874944
 30
0.0
 10
167.117900
 20
149.651400
 30
0.0
 10
167.136894
 20
156.639326
 30
0.0
 10
167.034676
 20
157.415782
 30
0.0
 10
166.734978
 20
158.139326
 30
0.0
 10
166.258218
 20
158.760644
 30
0.0
 10
165.636894
 20
159.237402
 30
0.0
 10
164.913352
 20
159.537105
 30
0.0
 10
164.136894
 20
159.639326
 30
0.0
 10
163.360436
 20
159.537105
 30
0.0
 10
162.636894
 20
159.237402
 30
0.0
 10
162.015571
 20
158.760644
 30
0.0
 10
161.538827
 20
158.139326
 30
0.0
 10
161.239113
 20
157.415782
 30
0.0
 10
161.136895
 20
156.639326
 30
0.0
 10
161.117901
 20
149.651400
 30
0.0
 10
161.220116
 20
148.874944
 30
0.0
  0
LWPOLYLINE
  5
12b
100
AcDbEntity
  8
Layer_1
 62
7
100
AcDbPolyline
 90
25
 70
1
 10
86.291389
 20
131.239208
 30
0.0
 10
86.325462
 20
131.498028
 30
0.0
 10
86.291389
 20
131.756848
 30
0.0
 10
86.191491
 20
131.998027
 30
0.0
 10
86.032569
 20
132.205136
 30
0.0
 10
85.825463
 20
132.364055
 30
0.0
 10
85.584281
 20
132.463953
 30
0.0
 10
85.325464
 20
132.498029
 30
0.0
 10
85.066643
 20
132.463953
 30
0.0
 10
84.825462
 20
132.364055
 30
0.0
 10
84.618362
 20
132.205136
 30
0.0
 10
84.459442
 20
131.998027
 30
0.0
 10
84.359544
 20
131.756848
 30
0.0
 10
84.325463
 20
131.498028
 30
0.0
 10
84.359544
 20
131.239208
 30
0.0
 10
84.459442
 20
130.998029
 30
0.0
 10
84.618362
 20
130.790923
 30
0.0
 10
84.825462
 20
130.632001
 30
0.0
 10
85.066643
 20
130.532103
 30
0.0
 10
85.325464
 20
130.498027
 30
0.0
 10
85.584281
 20
130.532103
 30
0.0
 10
85.825463
 20
130.632001
 30
0.0
 10
86.032569
 20
130.790923
 30
0.0
 10
86.191491
 20
130.998029
 30
0.0
 10
86.291389
 20
131.239208
 30
0.0
  0
LWPOLYLINE
  5
12c
100
AcDbEntity
  8
Layer_1
 62
7
100
AcDbPolyline
 90
27
 70
1
 10
119.172798
 20
165.419401
 30
0.0
 10
119.631432
 20
165.169902
 30
0.0
 10
120.009858
 20
164.810199
 30
0.0
 10
120.282296
 20
164.364810
 30
0.0
 10
120.430183
 20
163.864085
 30
0.0
 10
120.443419
 20
163.342149
 30
0.0
 10
120.321118
 20
162.834570
 30
0.0
 10
118.010184
 20
156.605104
 30
0.0
 10
117.741254
 20
156.157587
 30
0.0
 10
117.365659
 20
155.794920
 30
0.0
 10
116.909009
 20
155.541823
 30
0.0
 10
116.402403
 20
155.415540
 30
0.0
 10
115.880377
 20
155.424684
 30
0.0
 10
115.378507
 20
155.568620
 30
0.0
 10
114.930990
 20
155.837550
 30
0.0
 10
114.568326
 20
156.213137
 30
0.0
 10
114.315229
 20
156.669792
 30
0.0
 10
114.188946
 20
157.176398
 30
0.0
 10
114.198090
 20
157.698422
 30
0.0
 10
114.342023
 20
158.200292
 30
0.0
 10
116.587964
 20
164.271078
 30
0.0
 10
116.837469
 20
164.729712
 30
0.0
 10
117.197164
 20
165.108141
 30
0.0
 10
117.642553
 20
165.380578
 30
0.0
 10
118.143277
 20
165.528454
 30
0.0
 10
118.665219
 20
165.541690
 30
0.0
 10
119.172798
 20
165.419401
 30
0.0
  0
LWPOLYLINE
  5
12d
100
AcDbEntity
  8
Layer_1
 62
7
100
AcDbPolyline
 90
27
 70
1
 10
134.053597
 20
144.867372
 30
0.0
 10
133.277139
 20
144.969593
 30
0.0
 10
132.553597
 20
145.269296
 30
0.0
 10
131.932274
 20
145.746051
 30
0.0
 10
131.455513
 20
146.367372
 30
0.0
 10
131.155815
 20
147.090913
 30
0.0
 10
131.053597
 20
147.867374
 30
0.0
 10
131.155815
 20
148.643827
 30
0.0
 10
131.455513
 20
149.367374
 30
0.0
 10
131.932274
 20
149.988692
 30
0.0
 10
132.553597
 20
150.465450
 30
0.0
 10
133.277139
 20
150.765150
 30
0.0
 10
134.053597
 20
150.867374
 30
0.0
 10
143.555000
 20
150.867938
 30
0.0
 10
144.331459
 20
150.765779
 30
0.0
 10
145.055000
 20
150.466076
 30
0.0
 10
145.676324
 20
149.989324
 30
0.0
 10
146.153085
 20
149.368001
 30
0.0
 10
146.452782
 20
148.644459
 30
0.0
 10
146.555000
 20
147.868001
 30
0.0
 10
146.452782
 20
147.091545
 30
0.0
 10
146.153085
 20
146.368001
 30
0.0
 10
145.676324
 20
145.746683
 30
0.0
 10
145.055000
 20
145.269925
 30
0.0
 10
144.331459
 20
144.970225
 30
0.0
 10
143.555000
 20
144.867939
 30
0.0
 10
134.053597
 20
144.867372
 30
0.0
  0
LWPOLYLINE
  5
12e
100
AcDbEntity
  8
Layer_1
 62
7
100
AcDbPolyline
 90
27
 70
1
 10
193.022178
 20
151.694838
 30
0.0
 10
193.383950
 20
151.844687
 30
0.0
 10
193.772178
 20
151.895800
 30
0.0
 10
194.160408
 20
151.844687
 30
0.0
 10
194.522178
 20
151.694838
 30
0.0
 10
194.832848
 20
151.456456
 30
0.0
 10
199.978721
 20
146.810314
 30
0.0
 10
200.217095
 20
146.499652
 30
0.0
 10
200.366952
 20
146.137880
 30
0.0
 10
200.418054
 20
145.749652
 30
0.0
 10
200.366952
 20
145.361424
 30
0.0
 10
200.217095
 20
144.999652
 30
0.0
 10
199.978721
 20
144.688993
 30
0.0
 10
199.668054
 20
144.450614
 30
0.0
 10
199.306282
 20
144.300763
 30
0.0
 10
198.918054
 20
144.249652
 30
0.0
 10
198.529823
 20
144.300763
 30
0.0
 10
198.168054
 20
144.450614
 30
0.0
 10
197.857398
 20
144.688993
 30
0.0
 10
192.711525
 20
149.335139
 30
0.0
 10
192.473137
 20
149.645800
 30
0.0
 10
192.323297
 20
150.007570
 30
0.0
 10
192.272178
 20
150.395800
 30
0.0
 10
192.323297
 20
150.784025
 30
0.0
 10
192.473137
 20
151.145800
 30
0.0
 10
192.711525
 20
151.456456
 30
0.0
 10
193.022178
 20
151.694838
 30
0.0
  0
LWPOLYLINE
  5
12f
100
AcDbEntity
  8
Layer_1
 62
7
100
AcDbPolyline
 90
25
 70
1
 10
15.361743
 20
133.165874
 30
0.0
 10
15.062041
 20
132.442332
 30
0.0
 10
14.585286
 20
131.821012
 30
0.0
 10
13.963965
 20
131.344256
 30
0.0
 10
13.240422
 20
131.044553
 30
0.0
 10
12.463966
 20
130.942333
 30
0.0
 10
11.687509
 20
131.044553
 30
0.0
 10
10.963965
 20
131.344256
 30
0.0
 10
10.342645
 20
131.821012
 30
0.0
 10
9.865889
 20
132.442332
 30
0.0
 10
9.566188
 20
133.165874
 30
0.0
 10
9.463966
 20
133.942332
 30
0.0
 10
9.566188
 20
134.718788
 30
0.0
 10
9.865889
 20
135.442332
 30
0.0
 10
10.342645
 20
136.063653
 30
0.0
 10
10.963965
 20
136.540408
 30
0.0
 10
11.687509
 20
136.840108
 30
0.0
 10
12.463966
 20
136.942332
 30
0.0
 10
13.240422
 20
136.840108
 30
0.0
 10
13.963965
 20
136.540408
 30
0.0
 10
14.585286
 20
136.063653
 30
0.0
 10
15.062041
 20
135.442332
 30
0.0
 10
15.361743
 20
134.718788
 30
0.0
 10
15.463965
 20
133.942332
 30
0.0
 10
15.361743
 20
133.165874
 30
0.0
  0
LWPOLYLINE
  5
130
100
AcDbEntity
  8
Layer_1
 62
7
100
AcDbPolyline
 90
25
 70
1
 10
168.334464
 20
183.487764
 30
0.0
 10
168.096198
 20
183.177255
 30
0.0
 10
167.946434
 20
182.815652
 30
0.0
 10
167.895332
 20
182.427608
 30
0.0
 10
167.946434
 20
182.039569
 30
0.0
 10
168.096198
 20
181.677966
 30
0.0
 10
168.334464
 20
181.367448
 30
0.0
 10
168.644982
 20
181.129191
 30
0.0
 10
169.006585
 20
180.979410
 30
0.0
 10
169.394632
 20
180.928325
 30
0.0
 10
169.782676
 20
180.979410
 30
0.0
 10
170.144265
 20
181.129191
 30
0.0
 10
170.454780
 20
181.367448
 30
0.0
 10
170.693046
 20
181.677966
 30
0.0
 10
170.842827
 20
182.039569
 30
0.0
 10
170.893912
 20
182.427608
 30
0.0
 10
170.842827
 20
182.815652
 30
0.0
 10
170.693046
 20
183.177255
 30
0.0
 10
170.454780
 20
183.487764
 30
0.0
 10
170.144265
 20
183.726030
 30
0.0
 10
169.782676
 20
183.875811
 30
0.0
 10
169.394632
 20
183.926896
 30
0.0
 10
169.006585
 20
183.875811
 30
0.0
 10
168.644982
 20
183.726030
 30
0.0
 10
168.334464
 20
183.487764
 30
0.0
  0
LWPOLYLINE
  5
131
100
AcDbEntity
  8
Layer_1
 62
7
100
AcDbPolyline
 90
25
 70
1
 10
59.325465
 20
137.151399
 30
0.0
 10
59.427689
 20
136.374944
 30
0.0
 10
59.727392
 20
135.651399
 30
0.0
 10
60.204144
 20
135.030079
 30
0.0
 10
60.825468
 20
134.553324
 30
0.0
 10
61.549006
 20
134.253623
 30
0.0
 10
62.325467
 20
134.151400
 30
0.0
 10
63.101920
 20
134.253623
 30
0.0
 10
63.825467
 20
134.553324
 30
0.0
 10
64.446785
 20
135.030079
 30
0.0
 10
64.923543
 20
135.651399
 30
0.0
 10
65.223243
 20
136.374944
 30
0.0
 10
65.325467
 20
137.151399
 30
0.0
 10
65.223243
 20
137.927857
 30
0.0
 10
64.923543
 20
138.651399
 30
0.0
 10
64.446785
 20
139.272720
 30
0.0
 10
63.825467
 20
139.749475
 30
0.0
 10
63.101920
 20
140.049178
 30
0.0
 10
62.325467
 20
140.151399
 30
0.0
 10
61.549006
 20
140.049178
 30
0.0
 10
60.825468
 20
139.749475
 30
0.0
 10
60.204144
 20
139.272720
 30
0.0
 10
59.727392
 20
138.651399
 30
0.0
 10
59.427689
 20
137.927857
 30
0.0
 10
59.325465
 20
137.151399
 30
0.0
  0
LWPOLYLINE
  5
132
100
AcDbEntity
  8
Layer_1
 62
7
100
AcDbPolyline
 90
27
 70
1
 10
186.724160
 20
139.405644
 30
0.0
 10
186.574317
 20
139.043874
 30
0.0
 10
186.335930
 20
138.733212
 30
0.0
 10
186.025276
 20
138.494836
 30
0.0
 10
185.663504
 20
138.344985
 30
0.0
 10
185.275277
 20
138.293874
 30
0.0
 10
176.076379
 20
138.293874
 30
0.0
 10
175.688148
 20
138.344985
 30
0.0
 10
175.326379
 20
138.494836
 30
0.0
 10
175.015709
 20
138.733212
 30
0.0
 10
174.777335
 20
139.043874
 30
0.0
 10
174.627481
 20
139.405644
 30
0.0
 10
174.576379
 20
139.793874
 30
0.0
 10
174.627481
 20
140.182102
 30
0.0
 10
174.777335
 20
140.543874
 30
0.0
 10
175.015709
 20
140.854533
 30
0.0
 10
175.326379
 20
141.092912
 30
0.0
 10
175.688148
 20
141.242761
 30
0.0
 10
176.076379
 20
141.293874
 30
0.0
 10
185.275277
 20
141.293874
 30
0.0
 10
185.663504
 20
141.242761
 30
0.0
 10
186.025276
 20
141.092912
 30
0.0
 10
186.335930
 20
140.854533
 30
0.0
 10
186.574317
 20
140.543874
 30
0.0
 10
186.724160
 20
140.182102
 30
0.0
 10
186.775276
 20
139.793874
 30
0.0
 10
186.724160
 20
139.405644
 30
0.0
  0
LWPOLYLINE
  5
133
100
AcDbEntity
  8
Layer_1
 62
7
100
AcDbPolyline
 90
27
 70
1
 10
123.988539
 20
149.629146
 30
0.0
 10
124.241639
 20
150.085807
 30
0.0
 10
124.604300
 20
150.461394
 30
0.0
 10
125.051820
 20
150.730324
 30
0.0
 10
125.553696
 20
150.874260
 30
0.0
 10
126.075714
 20
150.883404
 30
0.0
 10
126.582323
 20
150.757121
 30
0.0
 10
127.038978
 20
150.504021
 30
0.0
 10
127.414565
 20
150.141354
 30
0.0
 10
127.683494
 20
149.693837
 30
0.0
 10
129.994432
 20
143.464372
 30
0.0
 10
130.116730
 20
142.956792
 30
0.0
 10
130.103493
 20
142.434856
 30
0.0
 10
129.955609
 20
141.934132
 30
0.0
 10
129.683171
 20
141.488743
 30
0.0
 10
129.304745
 20
141.129042
 30
0.0
 10
128.846114
 20
140.879541
 30
0.0
 10
128.338538
 20
140.757245
 30
0.0
 10
127.816596
 20
140.770482
 30
0.0
 10
127.315872
 20
140.918357
 30
0.0
 10
126.870483
 20
141.190798
 30
0.0
 10
126.510785
 20
141.569230
 30
0.0
 10
126.261281
 20
142.027866
 30
0.0
 10
124.015342
 20
148.098655
 30
0.0
 10
123.871406
 20
148.600523
 30
0.0
 10
123.862262
 20
149.122546
 30
0.0
 10
123.988539
 20
149.629146
 30
0.0
  0
LWPOLYLINE
  5
134
100
AcDbEntity
  8
Layer_1
 62
7
100
AcDbPolyline
 90
25
 70
1
 10
126.289032
 20
175.121013
 30
0.0
 10
126.171875
 20
175.354295
 30
0.0
 10
125.998329
 20
175.549310
 30
0.0
 10
125.780222
 20
175.692764
 30
0.0
 10
125.532425
 20
175.774871
 30
0.0
 10
125.271812
 20
175.790051
 30
0.0
 10
125.016153
 20
175.737265
 30
0.0
 10
124.782868
 20
175.620108
 30
0.0
 10
124.587852
 20
175.446562
 30
0.0
 10
124.444405
 20
175.228452
 30
0.0
 10
124.362292
 20
174.980655
 30
0.0
 10
124.347108
 20
174.720042
 30
0.0
 10
124.399895
 20
174.464383
 30
0.0
 10
124.517060
 20
174.231095
 30
0.0
 10
124.690607
 20
174.036085
 30
0.0
 10
124.908708
 20
173.892635
 30
0.0
 10
125.156510
 20
173.810519
 30
0.0
 10
125.417123
 20
173.795336
 30
0.0
 10
125.672782
 20
173.848127
 30
0.0
 10
125.906067
 20
173.965286
 30
0.0
 10
126.101083
 20
174.138833
 30
0.0
 10
126.244531
 20
174.356940
 30
0.0
 10
126.326646
 20
174.604742
 30
0.0
 10
126.341830
 20
174.865349
 30
0.0
 10
126.289032
 20
175.121013
 30
0.0
  0
LWPOLYLINE
  5
135
100
AcDbEntity
  8
Layer_1
 62
7
100
AcDbPolyline
 90
25
 70
1
 10
54.770960
 20
137.109718
 30
0.0
 10
54.574593
 20
136.770938
 30
0.0
 10
54.297210
 20
136.494533
 30
0.0
 10
53.957751
 20
136.299351
 30
0.0
 10
53.579350
 20
136.198721
 30
0.0
 10
53.187772
 20
136.199286
 30
0.0
 10
52.809702
 20
136.301301
 30
0.0
 10
52.470911
 20
136.497688
 30
0.0
 10
52.194505
 20
136.775059
 30
0.0
 10
51.999309
 20
137.114510
 30
0.0
 10
51.898624
 20
137.492922
 30
0.0
 10
51.899188
 20
137.884508
 30
0.0
 10
52.001256
 20
138.262565
 30
0.0
 10
52.197635
 20
138.601341
 30
0.0
 10
52.475006
 20
138.877744
 30
0.0
 10
52.814466
 20
139.072943
 30
0.0
 10
53.192875
 20
139.173629
 30
0.0
 10
53.584453
 20
139.173064
 30
0.0
 10
53.962515
 20
139.070996
 30
0.0
 10
54.301286
 20
138.874611
 30
0.0
 10
54.577705
 20
138.597235
 30
0.0
 10
54.772904
 20
138.257775
 30
0.0
 10
54.873582
 20
137.879369
 30
0.0
 10
54.873017
 20
137.487797
 30
0.0
 10
54.770960
 20
137.109718
 30
0.0
  0
LWPOLYLINE
  5
136
100
AcDbEntity
  8
Layer_1
 62
7
100
AcDbPolyline
 90
25
 70
1
 10
61.549006
 20
150.253622
 30
0.0
 10
60.825468
 20
150.553325
 30
0.0
 10
60.204144
 20
151.030081
 30
0.0
 10
59.727392
 20
151.651398
 30
0.0
 10
59.427689
 20
152.374946
 30
0.0
 10
59.325465
 20
153.151401
 30
0.0
 10
59.446691
 20
153.915780
 30
0.0
 10
59.746388
 20
154.639327
 30
0.0
 10
60.223143
 20
155.260645
 30
0.0
 10
60.844467
 20
155.737403
 30
0.0
 10
61.568008
 20
156.037104
 30
0.0
 10
62.344467
 20
156.139327
 30
0.0
 10
63.120922
 20
156.037104
 30
0.0
 10
63.844466
 20
155.737403
 30
0.0
 10
64.465787
 20
155.260645
 30
0.0
 10
64.942542
 20
154.639327
 30
0.0
 10
65.242245
 20
153.915780
 30
0.0
 10
65.325467
 20
153.151401
 30
0.0
 10
65.223243
 20
152.374946
 30
0.0
 10
64.923543
 20
151.651398
 30
0.0
 10
64.446785
 20
151.030081
 30
0.0
 10
63.825467
 20
150.553325
 30
0.0
 10
63.101920
 20
150.253622
 30
0.0
 10
62.325467
 20
150.151399
 30
0.0
 10
61.549006
 20
150.253622
 30
0.0
  0
LWPOLYLINE
  5
137
100
AcDbEntity
  8
Layer_1
 62
7
100
AcDbPolyline
 90
25
 70
1
 10
51.917662
 20
168.797742
 30
0.0
 10
52.018365
 20
169.176151
 30
0.0
 10
52.213550
 20
169.515611
 30
0.0
 10
52.489941
 20
169.792979
 30
0.0
 10
52.828712
 20
169.989357
 30
0.0
 10
53.206771
 20
170.091369
 30
0.0
 10
53.598352
 20
170.091990
 30
0.0
 10
53.976761
 20
169.991364
 30
0.0
 10
54.316218
 20
169.796168
 30
0.0
 10
54.593589
 20
169.519762
 30
0.0
 10
54.789970
 20
169.180988
 30
0.0
 10
54.892039
 20
168.802929
 30
0.0
 10
54.892603
 20
168.411349
 30
0.0
 10
54.791918
 20
168.032934
 30
0.0
 10
54.596719
 20
167.693477
 30
0.0
 10
54.320313
 20
167.416109
 30
0.0
 10
53.981539
 20
167.219730
 30
0.0
 10
53.603483
 20
167.117662
 30
0.0
 10
53.211905
 20
167.117097
 30
0.0
 10
52.833490
 20
167.217786
 30
0.0
 10
52.494031
 20
167.412985
 30
0.0
 10
52.216663
 20
167.689387
 30
0.0
 10
52.020281
 20
168.028161
 30
0.0
 10
51.918215
 20
168.406221
 30
0.0
 10
51.917662
 20
168.797742
 30
0.0
  0
LWPOLYLINE
  5
138
100
AcDbEntity
  8
Layer_1
 62
7
100
AcDbPolyline
 90
25
 70
1
 10
124.380899
 20
131.826343
 30
0.0
 10
124.498055
 20
132.059628
 30
0.0
 10
124.671602
 20
132.254640
 30
0.0
 10
124.889709
 20
132.398094
 30
0.0
 10
125.137511
 20
132.480207
 30
0.0
 10
125.398118
 20
132.495390
 30
0.0
 10
125.653778
 20
132.442598
 30
0.0
 10
125.887062
 20
132.325439
 30
0.0
 10
126.082078
 20
132.151892
 30
0.0
 10
126.225532
 20
131.933788
 30
0.0
 10
126.307638
 20
131.685982
 30
0.0
 10
126.322822
 20
131.425373
 30
0.0
 10
126.270035
 20
131.169713
 30
0.0
 10
126.152879
 20
130.936428
 30
0.0
 10
125.979332
 20
130.741416
 30
0.0
 10
125.761222
 20
130.597962
 30
0.0
 10
125.513420
 20
130.515852
 30
0.0
 10
125.252808
 20
130.500669
 30
0.0
 10
124.997154
 20
130.553456
 30
0.0
 10
124.763863
 20
130.670615
 30
0.0
 10
124.568856
 20
130.844162
 30
0.0
 10
124.425400
 20
131.062268
 30
0.0
 10
124.343284
 20
131.310068
 30
0.0
 10
124.328101
 20
131.570681
 30
0.0
 10
124.380899
 20
131.826343
 30
0.0
  0
LWPOLYLINE
  5
139
100
AcDbEntity
  8
Layer_1
 62
7
100
AcDbPolyline
 90
27
 70
1
 10
183.483911
 20
156.590476
 30
0.0
 10
183.432809
 20
156.202246
 30
0.0
 10
183.483911
 20
155.814021
 30
0.0
 10
183.633768
 20
155.452246
 30
0.0
 10
183.872138
 20
155.141587
 30
0.0
 10
184.182808
 20
154.903208
 30
0.0
 10
184.544578
 20
154.753359
 30
0.0
 10
184.932808
 20
154.702246
 30
0.0
 10
185.321039
 20
154.753359
 30
0.0
 10
185.682808
 20
154.903208
 30
0.0
 10
185.993462
 20
155.141587
 30
0.0
 10
191.139335
 20
159.787732
 30
0.0
 10
191.377723
 20
160.098394
 30
0.0
 10
191.527566
 20
160.460166
 30
0.0
 10
191.578682
 20
160.848394
 30
0.0
 10
191.527566
 20
161.236625
 30
0.0
 10
191.377723
 20
161.598394
 30
0.0
 10
191.139335
 20
161.909056
 30
0.0
 10
190.828682
 20
162.147432
 30
0.0
 10
190.466912
 20
162.297281
 30
0.0
 10
190.078682
 20
162.348394
 30
0.0
 10
189.690451
 20
162.297281
 30
0.0
 10
189.328682
 20
162.147432
 30
0.0
 10
189.018029
 20
161.909056
 30
0.0
 10
183.872138
 20
157.262908
 30
0.0
 10
183.633768
 20
156.952246
 30
0.0
 10
183.483911
 20
156.590476
 30
0.0
  0
LWPOLYLINE
  5
13a
100
AcDbEntity
  8
Layer_1
 62
7
100
AcDbPolyline
 90
27
 70
1
 10
129.071932
 20
135.008548
 30
0.0
 10
129.221780
 20
134.646779
 30
0.0
 10
129.460151
 20
134.336120
 30
0.0
 10
129.770813
 20
134.097741
 30
0.0
 10
130.132585
 20
133.947889
 30
0.0
 10
130.520821
 20
133.896779
 30
0.0
 10
145.590263
 20
133.896779
 30
0.0
 10
145.978493
 20
133.947889
 30
0.0
 10
146.340263
 20
134.097741
 30
0.0
 10
146.650933
 20
134.336120
 30
0.0
 10
146.889306
 20
134.646779
 30
0.0
 10
147.039161
 20
135.008548
 30
0.0
 10
147.090263
 20
135.396778
 30
0.0
 10
147.039161
 20
135.785006
 30
0.0
 10
146.889306
 20
136.146778
 30
0.0
 10
146.650933
 20
136.457437
 30
0.0
 10
146.340263
 20
136.695816
 30
0.0
 10
145.978493
 20
136.845668
 30
0.0
 10
145.590263
 20
136.896778
 30
0.0
 10
130.520821
 20
136.896778
 30
0.0
 10
130.132585
 20
136.845668
 30
0.0
 10
129.770813
 20
136.695816
 30
0.0
 10
129.460151
 20
136.457437
 30
0.0
 10
129.221780
 20
136.146778
 30
0.0
 10
129.071932
 20
135.785006
 30
0.0
 10
129.020813
 20
135.396778
 30
0.0
 10
129.071932
 20
135.008548
 30
0.0
  0
LWPOLYLINE
  5
13b
100
AcDbEntity
  8
Layer_1
 62
7
100
AcDbPolyline
 90
27
 70
1
 10
134.072593
 20
161.423354
 30
0.0
 10
133.296135
 20
161.321130
 30
0.0
 10
132.572594
 20
161.021430
 30
0.0
 10
131.951270
 20
160.544675
 30
0.0
 10
131.474509
 20
159.923354
 30
0.0
 10
131.174812
 20
159.199813
 30
0.0
 10
131.072594
 20
158.423355
 30
0.0
 10
131.174812
 20
157.646899
 30
0.0
 10
131.474509
 20
156.923355
 30
0.0
 10
131.951270
 20
156.302034
 30
0.0
 10
132.572594
 20
155.825279
 30
0.0
 10
133.296135
 20
155.525576
 30
0.0
 10
134.072593
 20
155.423352
 30
0.0
 10
143.574014
 20
155.422788
 30
0.0
 10
144.350458
 20
155.524946
 30
0.0
 10
145.074014
 20
155.824649
 30
0.0
 10
145.695320
 20
156.301402
 30
0.0
 10
146.172081
 20
156.922725
 30
0.0
 10
146.471778
 20
157.646267
 30
0.0
 10
146.574013
 20
158.422725
 30
0.0
 10
146.471778
 20
159.199181
 30
0.0
 10
146.172081
 20
159.922725
 30
0.0
 10
145.695320
 20
160.544043
 30
0.0
 10
145.074014
 20
161.020801
 30
0.0
 10
144.350458
 20
161.320504
 30
0.0
 10
143.574014
 20
161.422787
 30
0.0
 10
134.072593
 20
161.423354
 30
0.0
  0
LWPOLYLINE
  5
13c
100
AcDbEntity
  8
Layer_1
 62
7
100
AcDbPolyline
 90
27
 70
1
 10
102.637474
 20
141.606881
 30
0.0
 10
102.365037
 20
141.161492
 30
0.0
 10
101.986602
 20
140.801794
 30
0.0
 10
101.527977
 20
140.552296
 30
0.0
 10
101.020395
 20
140.430003
 30
0.0
 10
100.498459
 20
140.443239
 30
0.0
 10
99.997734
 20
140.591121
 30
0.0
 10
99.552345
 20
140.863558
 30
0.0
 10
99.192642
 20
141.241990
 30
0.0
 10
98.943146
 20
141.700621
 30
0.0
 10
96.697196
 20
147.771407
 30
0.0
 10
96.553263
 20
148.273277
 30
0.0
 10
96.544119
 20
148.795304
 30
0.0
 10
96.670399
 20
149.301907
 30
0.0
 10
96.923496
 20
149.758562
 30
0.0
 10
97.286169
 20
150.134146
 30
0.0
 10
97.733686
 20
150.403076
 30
0.0
 10
98.235556
 20
150.547015
 30
0.0
 10
98.757582
 20
150.556159
 30
0.0
 10
99.264179
 20
150.429876
 30
0.0
 10
99.720838
 20
150.176776
 30
0.0
 10
100.096425
 20
149.814109
 30
0.0
 10
100.365354
 20
149.366592
 30
0.0
 10
102.676297
 20
143.137127
 30
0.0
 10
102.798589
 20
142.629547
 30
0.0
 10
102.785353
 20
142.107608
 30
0.0
 10
102.637474
 20
141.606881
 30
0.0
  0
LWPOLYLINE
  5
13d
100
AcDbEntity
  8
Layer_1
 62
7
100
AcDbPolyline
 90
27
 70
1
 10
181.080560
 20
162.348394
 30
0.0
 10
181.468787
 20
162.297281
 30
0.0
 10
181.830560
 20
162.147432
 30
0.0
 10
182.141213
 20
161.909056
 30
0.0
 10
182.379586
 20
161.598394
 30
0.0
 10
182.529443
 20
161.236625
 30
0.0
 10
182.580560
 20
160.848394
 30
0.0
 10
182.529443
 20
160.460166
 30
0.0
 10
182.379586
 20
160.098394
 30
0.0
 10
182.141213
 20
159.787732
 30
0.0
 10
176.995339
 20
155.141587
 30
0.0
 10
176.684669
 20
154.903208
 30
0.0
 10
176.322900
 20
154.753359
 30
0.0
 10
175.934669
 20
154.702246
 30
0.0
 10
175.546442
 20
154.753359
 30
0.0
 10
175.184669
 20
154.903208
 30
0.0
 10
174.874016
 20
155.141587
 30
0.0
 10
174.635643
 20
155.452246
 30
0.0
 10
174.485786
 20
155.814021
 30
0.0
 10
174.434669
 20
156.202246
 30
0.0
 10
174.485786
 20
156.590476
 30
0.0
 10
174.635643
 20
156.952246
 30
0.0
 10
174.874016
 20
157.262908
 30
0.0
 10
180.019890
 20
161.909056
 30
0.0
 10
180.330560
 20
162.147432
 30
0.0
 10
180.692329
 20
162.297281
 30
0.0
 10
181.080560
 20
162.348394
 30
0.0
  0
LWPOLYLINE
  5
13e
100
AcDbEntity
  8
Layer_1
 62
7
100
AcDbPolyline
 90
27
 70
1
 10
176.095375
 20
167.996852
 30
0.0
 10
185.294273
 20
167.996852
 30
0.0
 10
185.682503
 20
167.945741
 30
0.0
 10
186.044273
 20
167.795890
 30
0.0
 10
186.354943
 20
167.557513
 30
0.0
 10
186.593316
 20
167.246852
 30
0.0
 10
186.743171
 20
166.885079
 30
0.0
 10
186.794273
 20
166.496852
 30
0.0
 10
186.743171
 20
166.108627
 30
0.0
 10
186.593316
 20
165.746852
 30
0.0
 10
186.354943
 20
165.436193
 30
0.0
 10
186.044273
 20
165.197814
 30
0.0
 10
185.682503
 20
165.047965
 30
0.0
 10
185.294273
 20
164.996852
 30
0.0
 10
176.095375
 20
164.996852
 30
0.0
 10
175.707147
 20
165.047965
 30
0.0
 10
175.345375
 20
165.197814
 30
0.0
 10
175.034708
 20
165.436193
 30
0.0
 10
174.796334
 20
165.746852
 30
0.0
 10
174.646491
 20
166.108627
 30
0.0
 10
174.595375
 20
166.496852
 30
0.0
 10
174.646491
 20
166.885079
 30
0.0
 10
174.796334
 20
167.246852
 30
0.0
 10
175.034708
 20
167.557513
 30
0.0
 10
175.345375
 20
167.795890
 30
0.0
 10
175.707147
 20
167.945741
 30
0.0
 10
176.095375
 20
167.996852
 30
0.0
  0
LWPOLYLINE
  5
13f
100
AcDbEntity
  8
Layer_1
 62
7
100
AcDbPolyline
 90
25
 70
1
 10
23.608430
 20
168.389327
 30
0.0
 10
23.370052
 20
168.078665
 30
0.0
 10
23.059392
 20
167.840289
 30
0.0
 10
22.697621
 20
167.690434
 30
0.0
 10
22.309392
 20
167.639327
 30
0.0
 10
21.921163
 20
167.690434
 30
0.0
 10
21.559392
 20
167.840289
 30
0.0
 10
21.248733
 20
168.078665
 30
0.0
 10
21.010354
 20
168.389327
 30
0.0
 10
20.860503
 20
168.751096
 30
0.0
 10
20.809392
 20
169.139327
 30
0.0
 10
20.860503
 20
169.527552
 30
0.0
 10
21.010354
 20
169.889327
 30
0.0
 10
21.248733
 20
170.199983
 30
0.0
 10
21.559392
 20
170.438364
 30
0.0
 10
21.921163
 20
170.588213
 30
0.0
 10
22.309392
 20
170.639326
 30
0.0
 10
22.697621
 20
170.588213
 30
0.0
 10
23.059392
 20
170.438364
 30
0.0
 10
23.370052
 20
170.199983
 30
0.0
 10
23.608430
 20
169.889327
 30
0.0
 10
23.758281
 20
169.527552
 30
0.0
 10
23.809392
 20
169.139327
 30
0.0
 10
23.758281
 20
168.751096
 30
0.0
 10
23.608430
 20
168.389327
 30
0.0
  0
LWPOLYLINE
  5
140
100
AcDbEntity
  8
Layer_1
 62
7
100
AcDbPolyline
 90
25
 70
1
 10
57.136101
 20
121.091730
 30
0.0
 10
57.440266
 20
120.845124
 30
0.0
 10
57.670243
 20
120.528189
 30
0.0
 10
57.810352
 20
120.162541
 30
0.0
 10
57.851049
 20
119.773075
 30
0.0
 10
57.789558
 20
119.386346
 30
0.0
 10
57.630077
 20
119.028714
 30
0.0
 10
57.383466
 20
118.724563
 30
0.0
 10
57.066533
 20
118.494580
 30
0.0
 10
56.700877
 20
118.354485
 30
0.0
 10
56.311422
 20
118.313788
 30
0.0
 10
55.924701
 20
118.375256
 30
0.0
 10
55.567069
 20
118.534740
 30
0.0
 10
55.262904
 20
118.781346
 30
0.0
 10
55.032933
 20
119.098281
 30
0.0
 10
54.892823
 20
119.463957
 30
0.0
 10
54.852124
 20
119.853395
 30
0.0
 10
54.913612
 20
120.240124
 30
0.0
 10
55.073099
 20
120.597756
 30
0.0
 10
55.319707
 20
120.901907
 30
0.0
 10
55.636640
 20
121.131890
 30
0.0
 10
56.002293
 20
121.272013
 30
0.0
 10
56.391751
 20
121.312710
 30
0.0
 10
56.778474
 20
121.251214
 30
0.0
 10
57.136101
 20
121.091730
 30
0.0
  0
LWPOLYLINE
  5
141
100
AcDbEntity
  8
Layer_1
 62
7
100
AcDbPolyline
 90
25
 70
1
 10
158.555673
 20
169.139327
 30
0.0
 10
158.504554
 20
168.751096
 30
0.0
 10
158.354714
 20
168.389327
 30
0.0
 10
158.116341
 20
168.078665
 30
0.0
 10
157.805670
 20
167.840289
 30
0.0
 10
157.443901
 20
167.690434
 30
0.0
 10
157.055673
 20
167.639327
 30
0.0
 10
156.667443
 20
167.690434
 30
0.0
 10
156.305671
 20
167.840289
 30
0.0
 10
155.995017
 20
168.078665
 30
0.0
 10
155.756630
 20
168.389327
 30
0.0
 10
155.606790
 20
168.751096
 30
0.0
 10
155.555671
 20
169.139327
 30
0.0
 10
155.606790
 20
169.527552
 30
0.0
 10
155.756630
 20
169.889327
 30
0.0
 10
155.995017
 20
170.199983
 30
0.0
 10
156.305671
 20
170.438364
 30
0.0
 10
156.667443
 20
170.588213
 30
0.0
 10
157.055673
 20
170.639326
 30
0.0
 10
157.443901
 20
170.588213
 30
0.0
 10
157.805670
 20
170.438364
 30
0.0
 10
158.116341
 20
170.199983
 30
0.0
 10
158.354714
 20
169.889327
 30
0.0
 10
158.504554
 20
169.527552
 30
0.0
 10
158.555673
 20
169.139327
 30
0.0
  0
LWPOLYLINE
  5
142
100
AcDbEntity
  8
Layer_1
 62
7
100
AcDbPolyline
 90
27
 70
1
 10
107.161674
 20
155.596140
 30
0.0
 10
106.659804
 20
155.740079
 30
0.0
 10
106.212287
 20
156.009005
 30
0.0
 10
105.849618
 20
156.384595
 30
0.0
 10
105.596521
 20
156.841251
 30
0.0
 10
105.470238
 20
157.347854
 30
0.0
 10
105.479382
 20
157.869880
 30
0.0
 10
105.623315
 20
158.371753
 30
0.0
 10
107.869262
 20
164.442536
 30
0.0
 10
108.118761
 20
164.901170
 30
0.0
 10
108.478461
 20
165.279596
 30
0.0
 10
108.923850
 20
165.552034
 30
0.0
 10
109.424575
 20
165.699915
 30
0.0
 10
109.946511
 20
165.713152
 30
0.0
 10
110.454093
 20
165.590859
 30
0.0
 10
110.912721
 20
165.341358
 30
0.0
 10
111.291153
 20
164.981657
 30
0.0
 10
111.563590
 20
164.536271
 30
0.0
 10
111.711472
 20
164.035544
 30
0.0
 10
111.724708
 20
163.513608
 30
0.0
 10
111.602419
 20
163.006025
 30
0.0
 10
109.291473
 20
156.776562
 30
0.0
 10
109.022546
 20
156.329043
 30
0.0
 10
108.646956
 20
155.966381
 30
0.0
 10
108.190301
 20
155.713282
 30
0.0
 10
107.683701
 20
155.586996
 30
0.0
 10
107.161674
 20
155.596140
 30
0.0
  0
LWPOLYLINE
  5
143
100
AcDbEntity
  8
Layer_1
 62
7
100
AcDbPolyline
 90
27
 70
1
 10
201.713143
 20
138.733212
 30
0.0
 10
201.402473
 20
138.494836
 30
0.0
 10
201.040704
 20
138.344985
 30
0.0
 10
200.652473
 20
138.293874
 30
0.0
 10
191.748726
 20
138.293874
 30
0.0
 10
191.360496
 20
138.344985
 30
0.0
 10
190.998726
 20
138.494836
 30
0.0
 10
190.688056
 20
138.733212
 30
0.0
 10
190.449686
 20
139.043874
 30
0.0
 10
190.299828
 20
139.405644
 30
0.0
 10
190.248726
 20
139.793874
 30
0.0
 10
190.299828
 20
140.182102
 30
0.0
 10
190.449686
 20
140.543874
 30
0.0
 10
190.688056
 20
140.854533
 30
0.0
 10
190.998726
 20
141.092912
 30
0.0
 10
191.360496
 20
141.242761
 30
0.0
 10
191.748726
 20
141.293874
 30
0.0
 10
200.652473
 20
141.293874
 30
0.0
 10
201.040704
 20
141.242761
 30
0.0
 10
201.402473
 20
141.092912
 30
0.0
 10
201.713143
 20
140.854533
 30
0.0
 10
201.951514
 20
140.543874
 30
0.0
 10
202.101371
 20
140.182102
 30
0.0
 10
202.152473
 20
139.793874
 30
0.0
 10
202.101371
 20
139.405644
 30
0.0
 10
201.951514
 20
139.043874
 30
0.0
 10
201.713143
 20
138.733212
 30
0.0
  0
LWPOLYLINE
  5
144
100
AcDbEntity
  8
Layer_1
 62
7
100
AcDbPolyline
 90
27
 70
1
 10
189.309686
 20
144.143294
 30
0.0
 10
188.999015
 20
144.381673
 30
0.0
 10
183.853142
 20
149.027818
 30
0.0
 10
183.614769
 20
149.338477
 30
0.0
 10
183.464914
 20
149.700252
 30
0.0
 10
183.413812
 20
150.088477
 30
0.0
 10
183.464914
 20
150.476705
 30
0.0
 10
183.614769
 20
150.838477
 30
0.0
 10
183.853142
 20
151.149139
 30
0.0
 10
184.163812
 20
151.387515
 30
0.0
 10
184.525581
 20
151.537367
 30
0.0
 10
184.913812
 20
151.588477
 30
0.0
 10
185.302040
 20
151.537367
 30
0.0
 10
185.663812
 20
151.387515
 30
0.0
 10
185.974465
 20
151.149139
 30
0.0
 10
191.120339
 20
146.502993
 30
0.0
 10
191.358726
 20
146.192332
 30
0.0
 10
191.508569
 20
145.830562
 30
0.0
 10
191.559685
 20
145.442332
 30
0.0
 10
191.508569
 20
145.054101
 30
0.0
 10
191.358726
 20
144.692332
 30
0.0
 10
191.120339
 20
144.381673
 30
0.0
 10
190.809685
 20
144.143294
 30
0.0
 10
190.447913
 20
143.993442
 30
0.0
 10
190.059685
 20
143.942332
 30
0.0
 10
189.671455
 20
143.993442
 30
0.0
 10
189.309686
 20
144.143294
 30
0.0
  0
LWPOLYLINE
  5
145
100
AcDbEntity
  8
Layer_1
 62
7
100
AcDbPolyline
 90
225
 70
0
 10
2.804707
 20
136.530522
 30
0.0
 10
3.803711
 20
138.942331
 30
0.0
 10
5.392898
 20
141.013399
 30
0.0
 10
7.463965
 20
142.602586
 30
0.0
 10
9.875775
 20
143.601588
 30
0.0
 10
12.463966
 20
143.942332
 30
0.0
 10
12.463966
 20
143.942332
 30
0.0
 10
31.463968
 20
143.942332
 30
0.0
 10
33.844323
 20
144.255711
 30
0.0
 10
36.062463
 20
145.174494
 30
0.0
 10
37.967226
 20
146.636070
 30
0.0
 10
39.428795
 20
148.540827
 30
0.0
 10
40.347581
 20
150.758967
 30
0.0
 10
40.660961
 20
153.139328
 30
0.0
 10
40.366580
 20
155.531756
 30
0.0
 10
39.447795
 20
157.749896
 30
0.0
 10
37.986222
 20
159.654659
 30
0.0
 10
36.081462
 20
161.116231
 30
0.0
 10
33.863322
 20
162.035014
 30
0.0
 10
31.482964
 20
162.348394
 30
0.0
 10
12.482966
 20
162.348394
 30
0.0
 10
9.894775
 20
162.689135
 30
0.0
 10
7.482965
 20
163.688140
 30
0.0
 10
5.411898
 20
165.277327
 30
0.0
 10
3.822711
 20
167.348395
 30
0.0
 10
2.823707
 20
169.760201
 30
0.0
 10
2.482966
 20
172.348394
 30
0.0
 10
2.823707
 20
174.936583
 30
0.0
 10
2.916579
 20
175.489171
 30
0.0
 10
3.450958
 20
176.985643
 30
0.0
 10
4.184977
 20
178.394968
 30
0.0
 10
5.104842
 20
179.690667
 30
0.0
 10
6.193265
 20
180.848391
 30
0.0
 10
7.429795
 20
181.846385
 30
0.0
 10
8.791193
 20
182.665888
 30
0.0
 10
10.251876
 20
183.291498
 30
0.0
 10
11.784394
 20
183.711473
 30
0.0
 10
13.359949
 20
183.917910
 30
0.0
 10
14.948933
 20
183.906929
 30
0.0
 10
33.097659
 20
184.884562
 30
0.0
 10
33.682624
 20
184.920049
 30
0.0
 10
34.266378
 20
184.971820
 30
0.0
 10
34.848459
 20
185.039844
 30
0.0
 10
35.428417
 20
185.124065
 30
0.0
 10
36.005807
 20
185.224414
 30
0.0
 10
36.580171
 20
185.340825
 30
0.0
 10
37.151070
 20
185.473193
 30
0.0
 10
37.718058
 20
185.621419
 30
0.0
 10
38.280690
 20
185.785396
 30
0.0
 10
38.838536
 20
185.964985
 30
0.0
 10
39.391164
 20
186.160054
 30
0.0
 10
46.899926
 20
189.160343
 30
0.0
 10
54.402460
 20
192.049273
 30
0.0
 10
54.951325
 20
192.080165
 30
0.0
 10
55.499768
 20
192.042423
 30
0.0
 10
56.039227
 20
191.936618
 30
0.0
 10
56.561299
 20
191.764423
 30
0.0
 10
57.057843
 20
191.528500
 30
0.0
 10
57.521114
 20
191.232547
 30
0.0
 10
57.943894
 20
190.881161
 30
0.0
 10
58.319588
 20
190.479832
 30
0.0
 10
58.642340
 20
190.034816
 30
0.0
 10
58.907124
 20
189.553043
 30
0.0
 10
59.109802
 20
189.042034
 30
0.0
 10
61.136829
 20
184.802783
 30
0.0
 10
64.191986
 20
181.232615
 30
0.0
 10
68.067070
 20
178.574840
 30
0.0
 10
70.282531
 20
177.792697
 30
0.0
 10
133.684394
 20
177.792697
 30
0.0
 10
136.560157
 20
177.518792
 30
0.0
 10
140.421577
 20
178.169075
 30
0.0
 10
143.983101
 20
179.796602
 30
0.0
 10
147.002051
 20
182.290467
 30
0.0
 10
149.272667
 20
185.480721
 30
0.0
 10
149.956430
 20
187.315332
 30
0.0
 10
150.313850
 20
188.093789
 30
0.0
 10
150.781639
 20
188.811350
 30
0.0
 10
151.677712
 20
189.727870
 30
0.0
 10
152.735466
 20
190.451806
 30
0.0
 10
153.523154
 20
190.788379
 30
0.0
 10
154.351722
 20
191.005679
 30
0.0
 10
155.203195
 20
191.099010
 30
0.0
 10
156.059152
 20
191.066348
 30
0.0
 10
156.901055
 20
190.908397
 30
0.0
 10
157.710641
 20
190.628579
 30
0.0
 10
158.470391
 20
190.232965
 30
0.0
 10
171.415688
 20
185.336037
 30
0.0
 10
171.748041
 20
185.214685
 30
0.0
 10
172.066704
 20
185.060938
 30
0.0
 10
172.368523
 20
184.876314
 30
0.0
 10
172.650537
 20
184.662652
 30
0.0
 10
172.909936
 20
184.422044
 30
0.0
 10
173.144172
 20
184.156879
 30
0.0
 10
173.350945
 20
183.869769
 30
0.0
 10
173.528191
 20
183.563555
 30
0.0
 10
173.674171
 20
183.241266
 30
0.0
 10
173.787421
 20
182.906070
 30
0.0
 10
173.866861
 20
182.561288
 30
0.0
 10
173.911675
 20
182.210330
 30
0.0
 10
173.999551
 20
181.441049
 30
0.0
 10
174.143210
 20
180.680217
 30
0.0
 10
174.341897
 20
179.931863
 30
0.0
 10
174.594565
 20
179.199962
 30
0.0
 10
174.899851
 20
178.488412
 30
0.0
 10
175.256156
 20
177.800978
 30
0.0
 10
175.661568
 20
177.141323
 30
0.0
 10
176.113945
 20
176.512938
 30
0.0
 10
176.610893
 20
175.919168
 30
0.0
 10
177.149743
 20
175.363165
 30
0.0
 10
177.727669
 20
174.847881
 30
0.0
 10
178.341576
 20
174.376050
 30
0.0
 10
181.448188
 20
171.992274
 30
0.0
 10
185.065896
 20
170.493765
 30
0.0
 10
187.855050
 20
170.126571
 30
0.0
 10
198.464774
 20
170.126571
 30
0.0
 10
199.543190
 20
170.267634
 30
0.0
 10
200.630073
 20
170.228078
 30
0.0
 10
201.695366
 20
170.008994
 30
0.0
 10
202.709647
 20
169.616437
 30
0.0
 10
203.644873
 20
169.061244
 30
0.0
 10
204.475179
 20
168.358787
 30
0.0
 10
205.177647
 20
167.528473
 30
0.0
 10
205.732823
 20
166.593250
 30
0.0
 10
206.125372
 20
165.578966
 30
0.0
 10
206.344455
 20
164.513668
 30
0.0
 10
206.325462
 20
141.777030
 30
0.0
 10
206.106375
 20
140.711728
 30
0.0
 10
205.713830
 20
139.697447
 30
0.0
 10
205.158639
 20
138.762225
 30
0.0
 10
204.456185
 20
137.931910
 30
0.0
 10
203.158265
 20
136.951865
 30
0.0
 10
201.676370
 20
136.281717
 30
0.0
 10
200.611060
 20
136.062634
 30
0.0
 10
199.524194
 20
136.023078
 30
0.0
 10
198.445778
 20
136.164144
 30
0.0
 10
187.836051
 20
136.164144
 30
0.0
 10
185.046900
 20
135.796944
 30
0.0
 10
181.429192
 20
134.298437
 30
0.0
 10
178.322580
 20
131.914659
 30
0.0
 10
177.708673
 20
131.442831
 30
0.0
 10
177.130744
 20
130.927544
 30
0.0
 10
176.591880
 20
130.371544
 30
0.0
 10
176.094949
 20
129.777774
 30
0.0
 10
175.642569
 20
129.149392
 30
0.0
 10
175.237146
 20
128.489720
 30
0.0
 10
174.880852
 20
127.802311
 30
0.0
 10
174.575555
 20
127.090744
 30
0.0
 10
174.322898
 20
126.358857
 30
0.0
 10
174.124214
 20
125.610489
 30
0.0
 10
173.980554
 20
124.849674
 30
0.0
 10
173.892679
 20
124.080393
 30
0.0
 10
173.847862
 20
123.729421
 30
0.0
 10
173.768425
 20
123.384630
 30
0.0
 10
173.655160
 20
123.049435
 30
0.0
 10
173.509195
 20
122.727165
 30
0.0
 10
173.331948
 20
122.420926
 30
0.0
 10
173.125175
 20
122.133821
 30
0.0
 10
172.890939
 20
121.868674
 30
0.0
 10
172.631538
 20
121.628051
 30
0.0
 10
172.349527
 20
121.414380
 30
0.0
 10
172.047690
 20
121.229779
 30
0.0
 10
171.729042
 20
121.076024
 30
0.0
 10
171.396691
 20
120.954669
 30
0.0
 10
158.451395
 20
116.057746
 30
0.0
 10
157.691644
 20
115.662127
 30
0.0
 10
156.882059
 20
115.382304
 30
0.0
 10
156.040153
 20
115.224372
 30
0.0
 10
155.184196
 20
115.191691
 30
0.0
 10
154.332726
 20
115.285022
 30
0.0
 10
153.504158
 20
115.502333
 30
0.0
 10
152.716470
 20
115.838911
 30
0.0
 10
151.986717
 20
116.287447
 30
0.0
 10
151.330697
 20
116.838232
 30
0.0
 10
150.762643
 20
117.479356
 30
0.0
 10
150.294837
 20
118.196934
 30
0.0
 10
149.937431
 20
118.975388
 30
0.0
 10
149.253654
 20
120.810002
 30
0.0
 10
146.983055
 20
124.000242
 30
0.0
 10
143.964104
 20
126.494098
 30
0.0
 10
140.402581
 20
128.121646
 30
0.0
 10
136.541160
 20
128.771914
 30
0.0
 10
133.665398
 20
128.498031
 30
0.0
 10
70.263526
 20
128.498031
 30
0.0
 10
68.048065
 20
127.715866
 30
0.0
 10
64.172984
 20
125.058095
 30
0.0
 10
61.117827
 20
121.487928
 30
0.0
 10
59.090800
 20
117.248668
 30
0.0
 10
58.888122
 20
116.737676
 30
0.0
 10
58.623341
 20
116.255894
 30
0.0
 10
58.300586
 20
115.810886
 30
0.0
 10
57.924892
 20
115.409538
 30
0.0
 10
57.502115
 20
115.058172
 30
0.0
 10
57.038841
 20
114.762205
 30
0.0
 10
56.542297
 20
114.526296
 30
0.0
 10
56.020231
 20
114.354084
 30
0.0
 10
55.480766
 20
114.248278
 30
0.0
 10
54.932326
 20
114.210545
 30
0.0
 10
54.383458
 20
114.241449
 30
0.0
 10
46.880927
 20
117.130374
 30
0.0
 10
39.372162
 20
120.130664
 30
0.0
 10
38.819537
 20
120.325736
 30
0.0
 10
38.261694
 20
120.505314
 30
0.0
 10
37.699055
 20
120.669286
 30
0.0
 10
37.132068
 20
120.817509
 30
0.0
 10
36.561169
 20
120.949899
 30
0.0
 10
35.986805
 20
121.066288
 30
0.0
 10
35.409418
 20
121.166646
 30
0.0
 10
34.829459
 20
121.250861
 30
0.0
 10
34.247379
 20
121.318905
 30
0.0
 10
33.663625
 20
121.370664
 30
0.0
 10
33.078657
 20
121.406140
 30
0.0
 10
14.929933
 20
122.383800
 30
0.0
 10
13.340949
 20
122.372821
 30
0.0
 10
11.765394
 20
122.579239
 30
0.0
 10
10.232876
 20
122.999213
 30
0.0
 10
8.772193
 20
123.624844
 30
0.0
 10
7.410795
 20
124.444332
 30
0.0
 10
6.174265
 20
125.442327
 30
0.0
 10
5.085842
 20
126.600059
 30
0.0
 10
4.165977
 20
127.895741
 30
0.0
 10
3.431958
 20
129.305082
 30
0.0
 10
2.897579
 20
130.801554
 30
0.0
 10
2.804707
 20
131.354143
 30
0.0
 10
2.463966
 20
133.942332
 30
0.0
 10
2.804707
 20
136.530522
 30
0.0
  0
LWPOLYLINE
  5
146
100
AcDbEntity
  8
Layer_1
 62
7
100
AcDbPolyline
 90
27
 70
1
 10
71.879418
 20
149.087043
 30
0.0
 10
72.041611
 20
147.855069
 30
0.0
 10
72.541977
 20
146.647085
 30
0.0
 10
73.337937
 20
145.609763
 30
0.0
 10
74.375258
 20
144.813800
 30
0.0
 10
75.583246
 20
144.313437
 30
0.0
 10
76.879577
 20
144.142772
 30
0.0
 10
78.175903
 20
144.313437
 30
0.0
 10
79.383887
 20
144.813800
 30
0.0
 10
80.421212
 20
145.609763
 30
0.0
 10
81.217177
 20
146.647085
 30
0.0
 10
81.717538
 20
147.855069
 30
0.0
 10
81.879418
 20
149.084672
 30
0.0
 10
81.898722
 20
157.203683
 30
0.0
 10
81.736537
 20
158.435651
 30
0.0
 10
81.236171
 20
159.643641
 30
0.0
 10
80.440203
 20
160.680960
 30
0.0
 10
79.402887
 20
161.476923
 30
0.0
 10
78.194896
 20
161.977289
 30
0.0
 10
76.898571
 20
162.147954
 30
0.0
 10
75.602245
 20
161.977289
 30
0.0
 10
74.394258
 20
161.476923
 30
0.0
 10
73.356936
 20
160.680960
 30
0.0
 10
72.560968
 20
159.643641
 30
0.0
 10
72.060602
 20
158.435651
 30
0.0
 10
71.898722
 20
157.206054
 30
0.0
 10
71.879418
 20
149.087043
 30
0.0
  0
LWPOLYLINE
  5
147
100
AcDbEntity
  8
Layer_1
 62
7
100
AcDbPolyline
 90
25
 70
1
 10
158.335718
 20
136.401399
 30
0.0
 10
158.485558
 20
136.763171
 30
0.0
 10
158.536674
 20
137.151399
 30
0.0
 10
158.485558
 20
137.539630
 30
0.0
 10
158.335718
 20
137.901399
 30
0.0
 10
158.097327
 20
138.212061
 30
0.0
 10
157.786674
 20
138.450437
 30
0.0
 10
157.424905
 20
138.600289
 30
0.0
 10
157.036674
 20
138.651399
 30
0.0
 10
156.648446
 20
138.600289
 30
0.0
 10
156.286674
 20
138.450437
 30
0.0
 10
155.976007
 20
138.212061
 30
0.0
 10
155.737634
 20
137.901399
 30
0.0
 10
155.587793
 20
137.539630
 30
0.0
 10
155.536674
 20
137.151399
 30
0.0
 10
155.587793
 20
136.763171
 30
0.0
 10
155.737634
 20
136.401399
 30
0.0
 10
155.976007
 20
136.090740
 30
0.0
 10
156.286674
 20
135.852361
 30
0.0
 10
156.648446
 20
135.702510
 30
0.0
 10
157.036674
 20
135.651399
 30
0.0
 10
157.424905
 20
135.702510
 30
0.0
 10
157.786674
 20
135.852361
 30
0.0
 10
158.097327
 20
136.090740
 30
0.0
 10
158.335718
 20
136.401399
 30
0.0
  0
LWPOLYLINE
  5
148
100
AcDbEntity
  8
Layer_1
 62
7
100
AcDbPolyline
 90
25
 70
1
 10
85.603286
 20
175.758623
 30
0.0
 10
85.344469
 20
175.792696
 30
0.0
 10
85.085648
 20
175.758623
 30
0.0
 10
84.844467
 20
175.658725
 30
0.0
 10
84.637361
 20
175.499803
 30
0.0
 10
84.478439
 20
175.292697
 30
0.0
 10
84.378540
 20
175.051515
 30
0.0
 10
84.344468
 20
174.792695
 30
0.0
 10
84.378540
 20
174.533877
 30
0.0
 10
84.478439
 20
174.292696
 30
0.0
 10
84.637361
 20
174.085587
 30
0.0
 10
84.844467
 20
173.926673
 30
0.0
 10
85.085648
 20
173.826772
 30
0.0
 10
85.344469
 20
173.792697
 30
0.0
 10
85.603286
 20
173.826772
 30
0.0
 10
85.844468
 20
173.926673
 30
0.0
 10
86.051574
 20
174.085587
 30
0.0
 10
86.210487
 20
174.292696
 30
0.0
 10
86.310394
 20
174.533877
 30
0.0
 10
86.344467
 20
174.792695
 30
0.0
 10
86.310394
 20
175.051515
 30
0.0
 10
86.210487
 20
175.292697
 30
0.0
 10
86.051574
 20
175.499803
 30
0.0
 10
85.844468
 20
175.658725
 30
0.0
 10
85.603286
 20
175.758623
 30
0.0
  0
LWPOLYLINE
  5
149
100
AcDbEntity
  8
Layer_1
 62
7
100
AcDbPolyline
 90
25
 70
1
 10
56.797474
 20
185.039515
 30
0.0
 10
57.155103
 20
185.198999
 30
0.0
 10
57.459268
 20
185.445613
 30
0.0
 10
57.689239
 20
185.762537
 30
0.0
 10
57.829349
 20
186.128190
 30
0.0
 10
57.870048
 20
186.517657
 30
0.0
 10
57.808560
 20
186.904375
 30
0.0
 10
57.649076
 20
187.262004
 30
0.0
 10
57.402465
 20
187.566172
 30
0.0
 10
57.085532
 20
187.796146
 30
0.0
 10
56.719879
 20
187.936252
 30
0.0
 10
56.330421
 20
187.976946
 30
0.0
 10
55.943698
 20
187.915461
 30
0.0
 10
55.586071
 20
187.755977
 30
0.0
 10
55.281906
 20
187.509363
 30
0.0
 10
55.051929
 20
187.192439
 30
0.0
 10
54.911823
 20
186.826778
 30
0.0
 10
54.871123
 20
186.437319
 30
0.0
 10
54.932614
 20
186.050601
 30
0.0
 10
55.092098
 20
185.692972
 30
0.0
 10
55.338706
 20
185.388804
 30
0.0
 10
55.655639
 20
185.158830
 30
0.0
 10
56.021295
 20
185.018724
 30
0.0
 10
56.410750
 20
184.978022
 30
0.0
 10
56.797474
 20
185.039515
 30
0.0
  0
LWPOLYLINE
  5
14a
100
AcDbEntity
  8
Layer_1
 62
7
100
AcDbPolyline
 90
27
 70
1
 10
93.508683
 20
134.646779
 30
0.0
 10
93.358835
 20
135.008548
 30
0.0
 10
93.307724
 20
135.396778
 30
0.0
 10
93.358835
 20
135.785006
 30
0.0
 10
93.508683
 20
136.146778
 30
0.0
 10
93.747062
 20
136.457437
 30
0.0
 10
94.057724
 20
136.695816
 30
0.0
 10
94.419496
 20
136.845668
 30
0.0
 10
94.807724
 20
136.896778
 30
0.0
 10
110.194192
 20
136.896778
 30
0.0
 10
110.582419
 20
136.845668
 30
0.0
 10
110.944192
 20
136.695816
 30
0.0
 10
111.254853
 20
136.457437
 30
0.0
 10
111.493232
 20
136.146778
 30
0.0
 10
111.643081
 20
135.785006
 30
0.0
 10
111.694192
 20
135.396778
 30
0.0
 10
111.643081
 20
135.008548
 30
0.0
 10
111.493232
 20
134.646779
 30
0.0
 10
111.254853
 20
134.336120
 30
0.0
 10
110.944192
 20
134.097741
 30
0.0
 10
110.582419
 20
133.947889
 30
0.0
 10
110.194192
 20
133.896779
 30
0.0
 10
94.807724
 20
133.896779
 30
0.0
 10
94.419496
 20
133.947889
 30
0.0
 10
94.057724
 20
134.097741
 30
0.0
 10
93.747062
 20
134.336120
 30
0.0
 10
93.508683
 20
134.646779
 30
0.0
  0
LWPOLYLINE
  5
14b
100
AcDbEntity
  8
Layer_1
 62
7
100
AcDbPolyline
 90
27
 70
1
 10
118.124283
 20
140.762272
 30
0.0
 10
117.623559
 20
140.910150
 30
0.0
 10
117.178170
 20
141.182588
 30
0.0
 10
116.818467
 20
141.561017
 30
0.0
 10
116.568971
 20
142.019651
 30
0.0
 10
114.323021
 20
148.090437
 30
0.0
 10
114.179085
 20
148.592307
 30
0.0
 10
114.169941
 20
149.114334
 30
0.0
 10
114.296227
 20
149.620937
 30
0.0
 10
114.549324
 20
150.077589
 30
0.0
 10
114.911996
 20
150.453182
 30
0.0
 10
115.359513
 20
150.722108
 30
0.0
 10
115.861383
 20
150.866045
 30
0.0
 10
116.383407
 20
150.875189
 30
0.0
 10
116.890007
 20
150.748903
 30
0.0
 10
117.346665
 20
150.495806
 30
0.0
 10
117.722252
 20
150.133139
 30
0.0
 10
117.991182
 20
149.685622
 30
0.0
 10
120.302125
 20
143.456156
 30
0.0
 10
120.424414
 20
142.948577
 30
0.0
 10
120.411178
 20
142.426641
 30
0.0
 10
120.263299
 20
141.925916
 30
0.0
 10
119.990859
 20
141.480527
 30
0.0
 10
119.612436
 20
141.120827
 30
0.0
 10
119.153802
 20
140.871325
 30
0.0
 10
118.646217
 20
140.749033
 30
0.0
 10
118.124283
 20
140.762272
 30
0.0
  0
LWPOLYLINE
  5
14c
100
AcDbEntity
  8
Layer_1
 62
7
100
AcDbPolyline
 90
27
 70
1
 10
96.563138
 20
157.495428
 30
0.0
 10
96.689418
 20
156.988825
 30
0.0
 10
96.942512
 20
156.532166
 30
0.0
 10
97.305168
 20
156.156579
 30
0.0
 10
97.752690
 20
155.887653
 30
0.0
 10
98.254566
 20
155.743717
 30
0.0
 10
98.776593
 20
155.734573
 30
0.0
 10
99.283193
 20
155.860856
 30
0.0
 10
99.739842
 20
156.113955
 30
0.0
 10
100.115444
 20
156.476617
 30
0.0
 10
100.384365
 20
156.924136
 30
0.0
 10
102.695310
 20
163.153605
 30
0.0
 10
102.817608
 20
163.661184
 30
0.0
 10
102.804372
 20
164.183118
 30
0.0
 10
102.656488
 20
164.683845
 30
0.0
 10
102.384050
 20
165.129234
 30
0.0
 10
102.005624
 20
165.488935
 30
0.0
 10
101.546990
 20
165.738436
 30
0.0
 10
101.039416
 20
165.860729
 30
0.0
 10
100.517472
 20
165.847492
 30
0.0
 10
100.016748
 20
165.699616
 30
0.0
 10
99.571359
 20
165.427179
 30
0.0
 10
99.211655
 20
165.048747
 30
0.0
 10
98.962159
 20
164.590113
 30
0.0
 10
96.716212
 20
158.519330
 30
0.0
 10
96.572279
 20
158.017457
 30
0.0
 10
96.563138
 20
157.495428
 30
0.0
  0
LWPOLYLINE
  5
14d
100
AcDbEntity
  8
Layer_1
 62
7
100
AcDbPolyline
 90
25
 70
1
 10
23.739282
 20
136.763171
 30
0.0
 10
23.790393
 20
137.151399
 30
0.0
 10
23.739282
 20
137.539630
 30
0.0
 10
23.589431
 20
137.901399
 30
0.0
 10
23.351052
 20
138.212061
 30
0.0
 10
23.040393
 20
138.450437
 30
0.0
 10
22.678620
 20
138.600289
 30
0.0
 10
22.290393
 20
138.651399
 30
0.0
 10
21.902164
 20
138.600289
 30
0.0
 10
21.540393
 20
138.450437
 30
0.0
 10
21.229732
 20
138.212061
 30
0.0
 10
20.991353
 20
137.901399
 30
0.0
 10
20.841504
 20
137.539630
 30
0.0
 10
20.790393
 20
137.151399
 30
0.0
 10
20.841504
 20
136.763171
 30
0.0
 10
20.991353
 20
136.401399
 30
0.0
 10
21.229732
 20
136.090740
 30
0.0
 10
21.540393
 20
135.852361
 30
0.0
 10
21.902164
 20
135.702510
 30
0.0
 10
22.290393
 20
135.651399
 30
0.0
 10
22.678620
 20
135.702510
 30
0.0
 10
23.040393
 20
135.852361
 30
0.0
 10
23.351052
 20
136.090740
 30
0.0
 10
23.589431
 20
136.401399
 30
0.0
 10
23.739282
 20
136.763171
 30
0.0
  0
LWPOLYLINE
  5
14e
100
AcDbEntity
  8
Layer_1
 62
7
100
AcDbPolyline
 90
27
 70
1
 10
182.510444
 20
145.054101
 30
0.0
 10
182.360590
 20
144.692332
 30
0.0
 10
182.122217
 20
144.381673
 30
0.0
 10
181.811546
 20
144.143294
 30
0.0
 10
181.449777
 20
143.993442
 30
0.0
 10
181.061546
 20
143.942332
 30
0.0
 10
180.673333
 20
143.993442
 30
0.0
 10
180.311546
 20
144.143294
 30
0.0
 10
180.000893
 20
144.381673
 30
0.0
 10
174.855020
 20
149.027818
 30
0.0
 10
174.616629
 20
149.338477
 30
0.0
 10
174.466789
 20
149.700252
 30
0.0
 10
174.415673
 20
150.088477
 30
0.0
 10
174.466789
 20
150.476705
 30
0.0
 10
174.616629
 20
150.838477
 30
0.0
 10
174.855020
 20
151.149139
 30
0.0
 10
175.165673
 20
151.387515
 30
0.0
 10
175.527442
 20
151.537367
 30
0.0
 10
175.915673
 20
151.588477
 30
0.0
 10
176.303901
 20
151.537367
 30
0.0
 10
176.665673
 20
151.387515
 30
0.0
 10
176.976343
 20
151.149139
 30
0.0
 10
182.122217
 20
146.502993
 30
0.0
 10
182.360590
 20
146.192332
 30
0.0
 10
182.510444
 20
145.830562
 30
0.0
 10
182.561546
 20
145.442332
 30
0.0
 10
182.510444
 20
145.054101
 30
0.0
  0
LWPOLYLINE
  5
14f
100
AcDbEntity
  8
Layer_1
 62
7
100
AcDbPolyline
 90
27
 70
1
 10
200.385948
 20
160.929302
 30
0.0
 10
200.437064
 20
160.541074
 30
0.0
 10
200.385948
 20
160.152846
 30
0.0
 10
200.236091
 20
159.791074
 30
0.0
 10
199.997718
 20
159.480412
 30
0.0
 10
194.851844
 20
154.834264
 30
0.0
 10
194.541177
 20
154.595888
 30
0.0
 10
194.179405
 20
154.446039
 30
0.0
 10
193.791177
 20
154.394926
 30
0.0
 10
193.402946
 20
154.446039
 30
0.0
 10
193.041177
 20
154.595888
 30
0.0
 10
192.730521
 20
154.834264
 30
0.0
 10
192.492150
 20
155.144926
 30
0.0
 10
192.342293
 20
155.506698
 30
0.0
 10
192.291177
 20
155.894926
 30
0.0
 10
192.342293
 20
156.283156
 30
0.0
 10
192.492150
 20
156.644926
 30
0.0
 10
192.730521
 20
156.955587
 30
0.0
 10
197.876397
 20
161.601733
 30
0.0
 10
198.187065
 20
161.840112
 30
0.0
 10
198.548837
 20
161.989960
 30
0.0
 10
198.937065
 20
162.041074
 30
0.0
 10
199.325295
 20
161.989960
 30
0.0
 10
199.687064
 20
161.840112
 30
0.0
 10
199.997718
 20
161.601733
 30
0.0
 10
200.236091
 20
161.291074
 30
0.0
 10
200.385948
 20
160.929302
 30
0.0
  0
ENDSEC
  0
SECTION
  2
OBJECTS
  0
DICTIONARY
  5
C
330
0
100
AcDbDictionary
  3
ACAD_GROUP
350
D
  3
ACAD_MLINESTYLE
350
17
  0
DICTIONARY
  5
D
330
C
100
AcDbDictionary
  0
DICTIONARY
  5
1A
330
C
100
AcDbDictionary
  0
DICTIONARY
  5
17
330
C
100
AcDbDictionary
  3
STANDARD
350
18
  0
DICTIONARY
  5
19
330
C
100
AcDbDictionary
  0
ENDSEC
  0
EOF
