<?xml version="1.0" encoding="UTF-8" standalone="no"?>
<!-- Created with Inkscape (http://www.inkscape.org/) -->

<svg
   xmlns:dc="http://purl.org/dc/elements/1.1/"
   xmlns:cc="http://creativecommons.org/ns#"
   xmlns:rdf="http://www.w3.org/1999/02/22-rdf-syntax-ns#"
   xmlns:svg="http://www.w3.org/2000/svg"
   xmlns="http://www.w3.org/2000/svg"
   xmlns:sodipodi="http://sodipodi.sourceforge.net/DTD/sodipodi-0.dtd"
   xmlns:inkscape="http://www.inkscape.org/namespaces/inkscape"
   width="210mm"
   height="297mm"
   viewBox="0 0 744.09448819 1052.3622047"
   id="svg49246"
   version="1.1"
   inkscape:version="0.91 r13725"
   sodipodi:docname="top_plate.svg">
  <defs
     id="defs49248">
    <marker
       style="overflow:visible"
       refY="0.0"
       refX="0.0"
       orient="auto"
       id="DistanceX">
      <path
         id="path49261"
         style="stroke:#000000; stroke-width:0.5"
         d="M 3,-3 L -3,3 M 0,-5 L  0,5" />
    </marker>
    <pattern
       y="0"
       x="0"
       width="8"
       patternUnits="userSpaceOnUse"
       id="Hatch"
       height="8">
      <path
         id="path49264"
         stroke-width="0.25"
         stroke="#000000"
         linecap="square"
         d="M8 4 l-4,4" />
      <path
         id="path49266"
         stroke-width="0.25"
         stroke="#000000"
         linecap="square"
         d="M6 2 l-4,4" />
      <path
         id="path49268"
         stroke-width="0.25"
         stroke="#000000"
         linecap="square"
         d="M4 0 l-4,4" />
    </pattern>
    <marker
       style="overflow:visible"
       refY="0.0"
       refX="0.0"
       orient="auto"
       id="DistanceX-8">
      <path
         id="path76799"
         style="stroke:#000000; stroke-width:0.5"
         d="M 3,-3 L -3,3 M 0,-5 L  0,5" />
    </marker>
    <pattern
       y="0"
       x="0"
       width="8"
       patternUnits="userSpaceOnUse"
       id="Hatch-9"
       height="8">
      <path
         id="path76802"
         stroke-width="0.25"
         stroke="#000000"
         linecap="square"
         d="M8 4 l-4,4" />
      <path
         id="path76804"
         stroke-width="0.25"
         stroke="#000000"
         linecap="square"
         d="M6 2 l-4,4" />
      <path
         id="path76806"
         stroke-width="0.25"
         stroke="#000000"
         linecap="square"
         d="M4 0 l-4,4" />
    </pattern>
    <marker
       style="overflow:visible"
       refY="0.0"
       refX="0.0"
       orient="auto"
       id="DistanceX-4">
      <path
         id="path76833"
         style="stroke:#000000; stroke-width:0.5"
         d="M 3,-3 L -3,3 M 0,-5 L  0,5" />
    </marker>
    <pattern
       y="0"
       x="0"
       width="8"
       patternUnits="userSpaceOnUse"
       id="Hatch-2"
       height="8">
      <path
         id="path76836"
         stroke-width="0.25"
         stroke="#000000"
         linecap="square"
         d="M8 4 l-4,4" />
      <path
         id="path76838"
         stroke-width="0.25"
         stroke="#000000"
         linecap="square"
         d="M6 2 l-4,4" />
      <path
         id="path76840"
         stroke-width="0.25"
         stroke="#000000"
         linecap="square"
         d="M4 0 l-4,4" />
    </pattern>
  </defs>
  <sodipodi:namedview
     id="base"
     pagecolor="#ffffff"
     bordercolor="#666666"
     borderopacity="1.0"
     inkscape:pageopacity="0.0"
     inkscape:pageshadow="2"
     inkscape:zoom="1.1118952"
     inkscape:cx="413.48252"
     inkscape:cy="813.30257"
     inkscape:document-units="px"
     inkscape:current-layer="layer1"
     showgrid="false"
     inkscape:snap-bbox="true"
     inkscape:object-nodes="true"
     showguides="true"
     inkscape:guide-bbox="true"
     inkscape:window-width="1440"
     inkscape:window-height="897"
     inkscape:window-x="-8"
     inkscape:window-y="-8"
     inkscape:window-maximized="1">
    <sodipodi:guide
       position="194.25488,1032.1342"
       orientation="1,0"
       id="guide84271" />
  </sodipodi:namedview>
  <metadata
     id="metadata49251">
    <rdf:RDF>
      <cc:Work
         rdf:about="">
        <dc:format>image/svg+xml</dc:format>
        <dc:type
           rdf:resource="http://purl.org/dc/dcmitype/StillImage" />
        <dc:title></dc:title>
      </cc:Work>
    </rdf:RDF>
  </metadata>
  <g
     inkscape:label="Layer 1"
     inkscape:groupmode="layer"
     id="layer1">
    <g
       id="g76822">
      <g
         id="g76808"
         inkscape:label="PYDXF" />
      <g
         id="g76810"
         inkscape:label="0" />
    </g>
    <g
       inkscape:label="PYDXF"
       id="g76842"
       transform="translate(10.220846,-756.32775)" />
    <path
       id="path76898"
       style="fill:none;stroke:#000000"
       d="M 721.34237,215.45497 Z"
       inkscape:connector-curvature="0"
       sodipodi:nodetypes="cc" />
    <path
       id="path77050"
       style="fill:none;stroke:#000000"
       d="m 601.64014,267.14495 1.37492,-0.1811 1.28126,-0.5307 1.10026,-0.8442 0.84425,-1.1003 0.53072,-1.2812 0.18101,-1.375 -0.18101,-1.3749 -0.53072,-1.2813 -0.84425,-1.1002 -1.10026,-0.8443 -1.28126,-0.5307 -1.37492,-0.181 -1.37497,0.181 -1.28127,0.5307 -1.10025,0.8443 -0.84425,1.1002 -0.53072,1.2813 -0.18101,1.3749 0.18101,1.375 0.53072,1.2812 0.84425,1.1003 1.10025,0.8442 1.28127,0.5307 z"
       inkscape:connector-curvature="0"
       sodipodi:nodetypes="ccccccccccccccccccccccccc" />
    <path
       id="path78192"
       style="fill:none;stroke:#000000"
       d="m 35.091319,90.03425 0.362205,2.75123 1.061934,2.56373 1.689293,2.20153 2.201528,1.68929 2.563736,1.06193 2.751225,0.36221 2.751225,-0.36221 2.563736,-1.06193 2.201526,-1.68929 1.689294,-2.20153 1.061935,-2.56373 0.362205,-2.75123 -0.362205,-2.75122 -1.061935,-2.56374 -1.689294,-2.20153 -2.201526,-1.68929 -2.563736,-1.06194 -2.751225,-0.3622 -2.751225,0.3622 -2.563736,1.06194 -2.201528,1.68929 -1.689293,2.20153 -1.061934,2.56374 z"
       inkscape:connector-curvature="0"
       sodipodi:nodetypes="ccccccccccccccccccccccccc" />
    <path
       id="path78852"
       style="fill:none;stroke:#000000"
       d="m 462.03022,118.35162 -0.96534,-1.57815 -1.3409,-1.27454 -1.62505,-0.88406 -1.79853,-0.43331 -1.84937,0.0469 -1.77422,0.52397 -1.57815,0.96534 -1.27454,1.34089 -0.88405,1.62508 -7.95808,21.51065 -0.51,1.77829 -0.0324,1.84969 0.44746,1.79505 0.8968,1.61808 1.28505,1.33082 1.5857,0.9529 1.77827,0.51001 1.8497,0.0324 1.79504,-0.44746 1.61808,-0.89681 1.33082,-1.28504 0.95289,-1.58568 8.18839,-22.07292 0.43331,-1.79851 -0.0469,-1.84937 z"
       inkscape:connector-curvature="0"
       sodipodi:nodetypes="ccccccccccccccccccccccccccc" />
    <path
       id="path78912"
       style="fill:none;stroke:#000000"
       d="m 145.92628,51.31429 -1.33958,0.36144 -1.2004,0.69583 -0.97938,0.98283 -0.69163,1.20279 -0.35655,1.34085 0.002,1.38746 0.36141,1.33958 0.69582,1.20038 0.98281,0.97939 1.20281,0.69165 1.34083,0.35676 1.38749,-0.0022 1.33958,-0.361665 1.20041,-0.69584 0.97939,-0.98279 0.69163,-1.20282 0.35673,-1.34083 -0.002,-1.38748 -0.36165,-1.33958 -0.69584,-1.20039 -0.98279,-0.97936 -1.20281,-0.69165 -1.34082,-0.356565 z"
       inkscape:connector-curvature="0"
       sodipodi:nodetypes="ccccccccccccccccccccccccc" />
    <path
       id="path79312"
       style="fill:none;stroke:#000000"
       d="m 332.35659,96.56342 0.53096,1.28187 0.84465,1.10075 1.10077,0.84466 1.28187,0.53096 1.37561,0.18111 54.51901,0 1.37561,-0.18111 1.28187,-0.53096 1.10074,-0.84466 0.84465,-1.10075 0.53097,-1.28187 0.18112,-1.37562 -0.18112,-1.37561 -0.53097,-1.28187 -0.84465,-1.10076 -1.10074,-0.84465 -1.28187,-0.53097 -1.37561,-0.18109 -54.51901,0 -1.37561,0.18109 -1.28187,0.53097 -1.10077,0.84465 -0.84465,1.10076 -0.53096,1.28187 -0.1811,1.37561 z"
       inkscape:connector-curvature="0"
       sodipodi:nodetypes="ccccccccccccccccccccccccccc" />
    <path
       id="path79398"
       style="fill:none;stroke:#000000"
       d="m 229.91234,93.88848 1.68929,2.20152 1.06194,2.56374 0.3622,2.75122 -0.3622,2.75123 -1.06194,2.56373 -1.68929,2.20154 -2.20153,1.68928 -2.56374,1.06194 -2.75122,0.3622 -2.75123,-0.3622 -2.56373,-1.06194 -2.20154,-1.68928 -1.68929,-2.20154 -1.06192,-2.56373 -0.36221,-2.75123 0.36221,-2.75122 1.06192,-2.56374 1.68929,-2.20152 2.20154,-1.6893 2.56373,-1.06193 2.75123,-0.36221 2.75122,0.36221 2.56374,1.06193 z"
       inkscape:connector-curvature="0"
       sodipodi:nodetypes="ccccccccccccccccccccccccc" />
    <path
       id="path79430"
       style="fill:none;stroke:#000000"
       d="m 710.63387,168.32281 -2.56373,-1.06194 -2.20154,-1.68929 -1.68931,-2.20152 -1.06192,-2.56375 -0.36219,-2.75122 0.42951,-2.70843 1.06192,-2.56375 1.68931,-2.20152 2.20153,-1.6893 2.56373,-1.06193 2.75124,-0.36221 2.75123,0.36221 2.56373,1.06193 2.20153,1.6893 1.68926,2.20152 1.06197,2.56375 0.29488,2.70843 -0.36224,2.75122 -1.06192,2.56375 -1.68926,2.20152 -2.20154,1.68929 -2.56373,1.06194 -2.75123,0.36221 z"
       inkscape:connector-curvature="0"
       sodipodi:nodetypes="ccccccccccccccccccccccccc" />
    <path
       id="path79506"
       style="fill:none;stroke:#000000"
       d="m 547.26685,43.34234 1.37983,-0.14509 1.29533,-0.4973 1.12247,-0.8156 0.87312,-1.07833 0.56425,-1.26754 0.21703,-1.37042 -0.14513,-1.37986 -0.4973,-1.29533 -0.8156,-1.12245 -1.0783,-0.87312 -1.26759,-0.56426 -1.37037,-0.217 -1.37989,0.14511 -1.29532,0.49728 -1.12242,0.8156 -0.87313,1.07833 -0.56428,1.26753 -0.21697,1.37043 0.14506,1.37986 0.4973,1.29533 0.8156,1.12245 1.0783,0.87312 1.26759,0.56426 z"
       inkscape:connector-curvature="0"
       sodipodi:nodetypes="ccccccccccccccccccccccccc" />
    <path
       id="path79550"
       style="fill:none;stroke:#000000"
       d="m 396.72698,198.43797 -0.9653,1.57815 -1.34091,1.27454 -1.62508,0.88405 -1.79849,0.43332 -1.84938,-0.0469 -1.77422,-0.52398 -1.57818,-0.96533 -1.27451,-1.34089 -0.88407,-1.62508 -7.95806,-21.51065 -0.51001,-1.7783 -0.0324,-1.84968 0.44746,-1.79505 0.89681,-1.61808 1.28502,-1.33083 1.58569,-0.95289 1.77831,-0.51002 1.84967,-0.0324 1.79506,0.44747 1.61808,0.89681 1.33082,1.28502 0.9529,1.58569 8.18836,22.07292 0.43334,1.79851 -0.0469,1.84938 z"
       inkscape:connector-curvature="0"
       sodipodi:nodetypes="ccccccccccccccccccccccccccc" />
    <path
       id="path79570"
       style="fill:none;stroke:#000000"
       d="m 542.24222,279.63305 0.5643,1.2676 0.87306,1.0783 1.12248,0.8156 1.29533,0.4973 1.37983,0.1451 1.37043,-0.217 1.26759,-0.5643 1.0783,-0.8731 0.81559,-1.1225 0.49731,-1.2953 0.14506,-1.3798 -0.21697,-1.3705 -0.56429,-1.2675 -0.87312,-1.0783 -1.12243,-0.8156 -1.29532,-0.4973 -1.37989,-0.1451 -1.37037,0.217 -1.26759,0.5642 -1.07831,0.8732 -0.81559,1.1224 -0.4973,1.2953 -0.14512,1.3799 z"
       inkscape:connector-curvature="0"
       sodipodi:nodetypes="ccccccccccccccccccccccccc" />
    <path
       id="path79572"
       style="fill:none;stroke:#000000"
       d="m 462.65731,100.32166 -1.28187,-0.53096 -1.10077,-0.84466 -0.84465,-1.10075 -0.53096,-1.28187 -0.1811,-1.37562 0.1811,-1.37561 0.53096,-1.28187 0.84465,-1.10076 1.10077,-0.84465 1.28187,-0.53097 1.37561,-0.18109 53.39567,0 1.37561,0.18109 1.28187,0.53097 1.10079,0.84465 0.84463,1.10076 0.53099,1.28187 0.18107,1.37561 -0.18107,1.37562 -0.53099,1.28187 -0.84463,1.10075 -1.10079,0.84466 -1.28187,0.53096 -1.37561,0.18111 -53.39567,0 z"
       inkscape:connector-curvature="0"
       sodipodi:nodetypes="ccccccccccccccccccccccccccc" />
    <path
       id="path79616"
       style="fill:none;stroke:#000000"
       d="m 715.18844,115.37095 1.10074,-0.84465 0.84463,-1.10076 0.53099,-1.28188 0.18112,-1.3756 -0.18112,-1.37561 -0.53099,-1.28187 -0.84463,-1.10077 -1.10074,-0.84464 -1.28187,-0.53097 -1.37561,-0.1811 -31.54877,0 -1.37561,0.1811 -1.28187,0.53097 -1.10074,0.84464 -0.84468,1.10077 -0.53093,1.28187 -0.18113,1.37561 0.18113,1.3756 0.53093,1.28188 0.84468,1.10076 1.10074,0.84465 1.28187,0.53096 1.37561,0.18111 31.54877,0 1.37561,-0.18111 z"
       inkscape:connector-curvature="0"
       sodipodi:nodetypes="ccccccccccccccccccccccccccc" />
    <path
       id="path79618"
       style="fill:none;stroke:#000000"
       d="m 145.85891,264.83865 -1.33957,-0.3614 -1.20038,-0.6959 -0.97939,-0.9828 -0.69165,-1.2028 -0.35655,-1.3408 0.002,-1.3875 0.36145,-1.3396 0.69584,-1.2003 0.98281,-0.9794 1.2028,-0.6917 1.34083,-0.3567 1.38748,0.001 1.33958,0.3626 1.20037,0.6959 0.97939,0.9828 0.69165,1.2028 0.35677,1.3408 -0.002,1.3875 -0.36166,1.3396 -0.69583,1.2004 -0.98281,0.9793 -1.20281,0.6917 -1.34084,0.35555 z"
       inkscape:connector-curvature="0"
       sodipodi:nodetypes="ccccccccccccccccccccccccc" />
    <path
       id="path79622"
       style="fill:none;stroke:#000000"
       d="m 572.74264,173.20789 1.06193,2.56374 1.68931,2.20152 2.20154,1.6893 2.56373,1.06194 2.75123,0.3622 2.75123,-0.3622 2.56373,-1.06194 2.20153,-1.6893 1.68925,-2.20152 1.06199,-2.56374 0.36219,-2.75122 0.0673,-24.76037 -0.36219,-2.75122 -1.06192,-2.56374 -1.68931,-2.20152 -2.20154,-1.6893 -2.56373,-1.06194 -2.75123,-0.3622 -2.75123,0.3622 -2.56373,1.06194 -2.20154,1.6893 -1.68925,2.20152 -1.06198,2.56374 -0.36219,2.75122 -0.0673,24.76037 z"
       inkscape:connector-curvature="0"
       sodipodi:nodetypes="ccccccccccccccccccccccccccc" />
    <path
       id="path79630"
       style="fill:none;stroke:#000000"
       d="m 307.24715,235.69672 0.12073,-0.91708 -0.12073,-0.91708 -0.35397,-0.85457 -0.56311,-0.73385 -0.73384,-0.5631 -0.85458,-0.35397 -0.91707,-0.12074 -0.91708,0.12074 -0.85458,0.35397 -0.73382,0.5631 -0.5631,0.73385 -0.35397,0.85457 -0.12076,0.91708 0.12076,0.91708 0.35397,0.85457 0.5631,0.73384 0.73382,0.56311 0.85458,0.35397 0.91708,0.12074 0.91707,-0.12074 0.85458,-0.35397 0.73384,-0.56311 0.56311,-0.73384 z"
       inkscape:connector-curvature="0"
       sodipodi:nodetypes="ccccccccccccccccccccccccc" />
    <path
       id="path79650"
       style="fill:none;stroke:#000000"
       d="m 423.75608,114.5858 1.62508,0.88405 1.34088,1.27454 0.96533,1.57815 0.52401,1.77422 0.0469,1.84938 -0.43335,1.79851 -8.18835,22.07291 -0.9529,1.58569 -1.33085,1.28504 -1.61805,0.8968 -1.79506,0.44746 -1.8497,-0.0324 -1.77828,-0.51001 -1.58569,-0.9529 -1.28503,-1.33082 -0.8968,-1.61807 -0.44746,-1.79506 0.0324,-1.84969 0.51,-1.77828 7.95806,-21.51066 0.88407,-1.62508 1.27451,-1.34089 1.57815,-0.96533 1.77422,-0.52397 1.8494,-0.0469 z"
       inkscape:connector-curvature="0"
       sodipodi:nodetypes="ccccccccccccccccccccccccccc" />
    <path
       id="path79682"
       style="fill:none;stroke:#000000"
       d="m 476.48332,187.40795 -2.75123,-0.3622 -2.56373,-1.06194 -2.20154,-1.68929 -1.68931,-2.20153 -1.06192,-2.56373 -0.36219,-2.75124 0.36219,-2.75121 1.06192,-2.56375 1.68931,-2.20152 2.20154,-1.6893 2.56373,-1.06193 2.75123,-0.36221 33.66639,-0.002 2.75123,0.36198 2.56373,1.06194 2.20154,1.68928 1.68931,2.20154 1.06192,2.56373 0.36219,2.75123 -0.36219,2.75122 -1.06192,2.56374 -1.68931,2.20152 -2.20154,1.6893 -2.56373,1.06193 -2.75123,0.36243 z"
       inkscape:connector-curvature="0"
       sodipodi:nodetypes="ccccccccccccccccccccccccccc" />
    <path
       id="path79686"
       style="fill:none;stroke:#000000"
       d="m 685.42711,163.21614 1.28187,-0.53096 1.37561,-0.18111 1.37562,0.18111 1.28186,0.53096 1.1008,0.84466 18.23341,16.46271 0.84463,1.10077 0.53099,1.28187 0.18107,1.37561 -0.18107,1.37561 -0.53099,1.28187 -0.84463,1.10076 -1.10079,0.84465 -1.28187,0.53097 -1.37561,0.1811 -1.37562,-0.1811 -1.28186,-0.53097 -1.10075,-0.84465 -18.23341,-16.46272 -0.84468,-1.10077 -0.53093,-1.28186 -0.18113,-1.37562 0.18113,-1.3756 0.53093,-1.28188 0.84468,-1.10075 z"
       inkscape:connector-curvature="0"
       sodipodi:nodetypes="ccccccccccccccccccccccccccc" />
    <path
       id="path79690"
       style="fill:none;stroke:#000000"
       d="m 55.921633,228.86995 -1.061936,2.56373 -1.689289,2.20153 -2.201531,1.68929 -2.563735,1.06194 -2.751225,0.3622 -2.751225,-0.3622 -2.563736,-1.06194 -2.201528,-1.68929 -1.689293,-2.20153 -1.061934,-2.56373 -0.362205,-2.75123 0.362205,-2.75122 1.061934,-2.56374 1.689293,-2.20153 2.201528,-1.68929 2.563736,-1.06193 2.751225,-0.36221 2.751225,0.36221 2.563735,1.06193 2.201531,1.68929 1.689289,2.20153 1.061936,2.56374 0.362205,2.75122 z"
       inkscape:connector-curvature="0"
       sodipodi:nodetypes="ccccccccccccccccccccccccc" />
    <path
       id="path79692"
       style="fill:none;stroke:#000000"
       d="m 597.95096,50.56404 -0.84425,1.10023 -0.53066,1.28127 -0.18107,1.37496 0.18107,1.37494 0.53066,1.28127 0.84425,1.10026 1.10026,0.84422 1.28127,0.53072 1.37497,0.18101 1.37496,-0.18101 1.28122,-0.53072 1.10025,-0.84422 0.84425,-1.10026 0.53072,-1.28127 0.18101,-1.37494 -0.18101,-1.37496 -0.53072,-1.28127 -0.84425,-1.10023 -1.10025,-0.84425 -1.28122,-0.53072 -1.37496,-0.18101 -1.37497,0.18101 -1.28127,0.53072 z"
       inkscape:connector-curvature="0"
       sodipodi:nodetypes="ccccccccccccccccccccccccc" />
    <path
       id="path79698"
       style="fill:none;stroke:#000000"
       d="m 211.6986,214.74801 0.36221,2.75122 1.06194,2.56374 1.68928,2.20153 2.20154,1.68929 2.56372,1.06193 2.75124,0.36221 2.75121,-0.36221 2.56375,-1.06193 2.20152,-1.68929 1.6893,-2.20153 1.06193,-2.56374 0.36221,-2.75122 -0.36221,-2.75123 -1.06193,-2.56373 -1.6893,-2.20153 -2.20152,-1.68929 -2.56375,-1.06194 -2.75121,-0.3622 -2.75124,0.3622 -2.56372,1.06194 -2.20154,1.68929 -1.68928,2.20153 -1.06194,2.56373 z"
       inkscape:connector-curvature="0"
       sodipodi:nodetypes="ccccccccccccccccccccccccc" />
    <path
       id="path79708"
       style="fill:none;stroke:#000000"
       d="m 663.1113,206.76053 -0.53094,1.28186 -0.84468,1.10077 -1.10074,0.84464 -1.28187,0.53097 -1.37561,0.1811 -32.59452,0 -1.37562,-0.1811 -1.28186,-0.53097 -1.1008,-0.84464 -0.84463,-1.10077 -0.53098,-1.28186 -0.18107,-1.37562 0.18107,-1.37561 0.53098,-1.28187 0.84463,-1.10076 1.1008,-0.84465 1.28186,-0.53096 1.37562,-0.18111 32.59452,0 1.37561,0.18111 1.28187,0.53096 1.10074,0.84465 0.84468,1.10076 0.53094,1.28187 0.18112,1.37561 z"
       inkscape:connector-curvature="0"
       sodipodi:nodetypes="ccccccccccccccccccccccccccc" />
    <path
       id="path79720"
       style="fill:none;stroke:#000000"
       d="m 440.81973,170.53552 0.89681,-1.61809 1.28502,-1.33082 1.5857,-0.9529 1.7783,-0.51001 1.84967,-0.0324 1.79507,0.44746 1.61807,0.89681 1.33082,1.28504 0.9529,1.58569 8.18836,22.07291 0.43334,1.79851 -0.0469,1.84938 -0.524,1.77422 -0.96533,1.57815 -1.34088,1.27453 -1.62507,0.88406 -1.7985,0.43333 -1.8494,-0.0469 -1.77422,-0.52397 -1.57815,-0.96534 -1.27452,-1.3409 -0.88407,-1.62509 -7.95805,-21.51067 -0.51001,-1.77827 -0.0324,-1.84969 z"
       inkscape:connector-curvature="0"
       sodipodi:nodetypes="ccccccccccccccccccccccccccc" />
    <path
       id="path79722"
       style="fill:none;stroke:#000000"
       d="m 448.97108,80.21001 -0.41512,-0.82659 -0.61493,-0.691 -0.77282,-0.5083 -0.87802,-0.29093 -0.92343,-0.05379 -0.90588,0.18704 -0.8266,0.41512 -0.691,0.61493 -0.50828,0.77283 -0.29095,0.87802 -0.0538,0.92343 0.18704,0.90588 0.41515,0.82661 0.61493,0.69098 0.7728,0.50829 0.87804,0.29096 0.92343,0.0538 0.90588,-0.187055 0.8266,-0.41513 0.691,-0.61493 0.50828,-0.77282 0.29096,-0.87804 0.0538,-0.92341 z"
       inkscape:connector-curvature="0"
       sodipodi:nodetypes="ccccccccccccccccccccccccc" />
    <path
       id="path79726"
       style="fill:none;stroke:#000000"
       d="m 195.56059,214.8957 -0.69579,1.2004 -0.98285,0.97939 -1.20281,0.69159 -1.34079,0.35656 -1.38748,-0.002 -1.33962,-0.36147 -1.20044,-0.69586 -0.97939,-0.98281 -0.69164,-1.20278 -0.35676,-1.34083 0.002,-1.38751 0.36166,-1.33957 0.69583,-1.20039 0.98281,-0.97938 1.20281,-0.69165 1.34082,-0.35676 1.38748,0.002 1.33959,0.36166 1.20037,0.69585 0.97944,0.98283 0.69165,1.20281 0.35673,1.34081 -0.002,1.38746 z"
       inkscape:connector-curvature="0"
       sodipodi:nodetypes="ccccccccccccccccccccccccc" />
    <path
       id="path79728"
       style="fill:none;stroke:#000000"
       d="m 219.57729,168.32281 -2.56372,-1.06194 -2.20154,-1.68929 -1.68928,-2.20152 -1.06194,-2.56375 -0.36221,-2.75122 0.42954,-2.70843 1.06192,-2.56375 1.68929,-2.20152 2.20154,-1.6893 2.56373,-1.06193 2.75123,-0.36221 2.75122,0.36221 2.56374,1.06193 2.20153,1.6893 1.68929,2.20152 1.06194,2.56375 0.29488,2.70843 -0.36221,2.75122 -1.06193,2.56375 -1.6893,2.20152 -2.20152,1.68929 -2.56375,1.06194 -2.75121,0.36221 z"
       inkscape:connector-curvature="0"
       sodipodi:nodetypes="ccccccccccccccccccccccccc" />
    <path
       id="path79730"
       style="fill:none;stroke:#000000"
       d="m 185.45048,102.6153 0.35682,-1.34082 0.6916,-1.20281 0.97934,-0.9828 1.20037,-0.69583 1.33958,-0.36146 1.38749,-0.0022 1.34082,0.35655 1.2028,0.69164 0.98281,0.97939 0.69584,1.20038 0.36166,1.33958 0.002,1.38749 -0.35676,1.34084 -0.69165,1.2028 -0.97939,0.9828 -1.20038,0.69583 -1.33957,0.36166 -1.38748,0.002 -1.34084,-0.35677 -1.20281,-0.69165 -0.9828,-0.97938 -0.69584,-1.20038 -0.36165,-1.33958 z"
       inkscape:connector-curvature="0"
       sodipodi:nodetypes="ccccccccccccccccccccccccc" />
    <path
       id="path79732"
       style="fill:none;stroke:#000000"
       d="m 442.20998,233.61632 0.41512,-0.8266 0.61493,-0.69099 0.77282,-0.5083 0.87804,-0.29095 0.92341,-0.0538 0.90588,0.18706 0.8266,0.41513 0.691,0.61493 0.5083,0.77281 0.29093,0.87805 0.0538,0.92342 -0.18704,0.90588 -0.41512,0.8266 -0.61493,0.69099 -0.77283,0.5083 -0.87804,0.29094 -0.92343,0.0538 -0.90586,-0.18704 -0.82662,-0.41513 -0.69097,-0.61493 -0.50831,-0.77282 -0.29096,-0.87803 -0.0538,-0.92343 z"
       inkscape:connector-curvature="0"
       sodipodi:nodetypes="ccccccccccccccccccccccccc" />
    <path
       id="path79736"
       style="fill:none;stroke:#000000"
       d="m 651.6301,145.86939 -0.18107,1.37562 0.18107,1.3756 0.53099,1.28188 0.84462,1.10076 1.1008,0.84465 1.28186,0.53096 1.37562,0.18111 1.37562,-0.18111 1.28186,-0.53096 1.10074,-0.84465 18.23341,-16.46272 0.84468,-1.10077 0.53094,-1.28187 0.18112,-1.37561 -0.18112,-1.37562 -0.53094,-1.28186 -0.84468,-1.10077 -1.10074,-0.84464 -1.28186,-0.53096 -1.37562,-0.18111 -1.37562,0.18111 -1.28186,0.53096 -1.10074,0.84464 -18.23347,16.46273 -0.84462,1.10077 z"
       inkscape:connector-curvature="0"
       sodipodi:nodetypes="ccccccccccccccccccccccccccc" />
    <path
       id="path79738"
       style="fill:none;stroke:#000000"
       d="m 458.83175,222.34079 0.53096,1.28186 0.84462,1.10076 1.10077,0.84465 1.28187,0.53097 1.37564,0.1811 53.39566,0 1.37562,-0.1811 1.28186,-0.53097 1.1008,-0.84465 0.84463,-1.10076 0.53098,-1.28186 0.18107,-1.37562 -0.18107,-1.37561 -0.53098,-1.28187 -0.84463,-1.10076 -1.1008,-0.84465 -1.28186,-0.53097 -1.37562,-0.1811 -53.39566,0 -1.37564,0.1811 -1.28187,0.53097 -1.10077,0.84465 -0.84462,1.10076 -0.53096,1.28187 -0.18113,1.37561 z"
       inkscape:connector-curvature="0"
       sodipodi:nodetypes="ccccccccccccccccccccccccccc" />
    <path
       id="path79748"
       style="fill:none;stroke:#000000"
       d="m 476.55063,128.74502 -2.75123,0.36221 -2.56373,1.06193 -2.20154,1.68929 -1.68931,2.20153 -1.06192,2.56373 -0.36219,2.75123 0.36219,2.75122 1.06192,2.56374 1.68931,2.20153 2.20154,1.68929 2.56373,1.06194 2.75123,0.36221 33.66645,0.002 2.75118,-0.36198 2.56378,-1.06194 2.20148,-1.68928 1.68931,-2.20154 1.06192,-2.56373 0.36225,-2.75123 -0.36225,-2.75122 -1.06192,-2.56374 -1.68931,-2.20152 -2.20148,-1.6893 -2.56378,-1.06194 -2.75118,-0.36242 z"
       inkscape:connector-curvature="0"
       sodipodi:nodetypes="ccccccccccccccccccccccccccc" />
    <path
       id="path79750"
       style="fill:none;stroke:#000000"
       d="m 365.16635,198.96087 -0.96533,1.57815 -1.34091,1.27452 -1.62505,0.88405 -1.79852,0.43332 -1.84938,-0.0469 -1.77422,-0.52399 -1.57815,-0.96533 -1.27454,-1.3409 -0.88404,-1.62507 -7.95809,-21.51066 -0.51,-1.77828 -0.0324,-1.8497 0.44745,-1.79505 0.8968,-1.61807 1.28506,-1.33081 1.58569,-0.9529 1.77828,-0.51002 1.8497,-0.0324 1.79503,0.44746 1.61808,0.89681 1.33082,1.28504 0.9529,1.58569 8.18838,22.07291 0.43332,1.79851 -0.0469,1.84939 z"
       inkscape:connector-curvature="0"
       sodipodi:nodetypes="ccccccccccccccccccccccccccc" />
    <path
       id="path79752"
       style="fill:none;stroke:#000000"
       d="m 643.11429,125.46732 1.37561,0.18111 1.28187,0.53096 1.10074,0.84464 0.84463,1.10077 0.53099,1.28186 0.18112,1.37562 -0.18112,1.37561 -0.53099,1.28187 -0.84463,1.10077 -18.23341,16.46272 -1.1008,0.84465 -1.28186,0.53096 -1.37562,0.18111 -1.37561,-0.18111 -1.28187,-0.53096 -1.10074,-0.84465 -0.84463,-1.10076 -0.53099,-1.28188 -0.18112,-1.3756 0.18112,-1.37562 0.53099,-1.28186 0.84463,-1.10077 18.23341,-16.46273 1.1008,-0.84464 1.28186,-0.53096 z"
       inkscape:connector-curvature="0"
       sodipodi:nodetypes="ccccccccccccccccccccccccccc" />
    <path
       id="path79756"
       style="fill:none;stroke:#000000"
       d="m 625.45025,105.4531 32.59452,0 1.37562,0.1811 1.28186,0.53097 1.1008,0.84464 0.84463,1.10077 0.53098,1.28187 0.18107,1.37561 -0.18107,1.3756 -0.53098,1.28188 -0.84463,1.10076 -1.1008,0.84465 -1.28186,0.53096 -1.37562,0.18111 -32.59452,0 -1.37561,-0.18111 -1.28187,-0.53096 -1.10079,-0.84465 -0.84463,-1.10076 -0.53094,-1.28188 -0.18112,-1.3756 0.18112,-1.37561 0.53094,-1.28187 0.84463,-1.10077 1.10079,-0.84464 1.28187,-0.53097 z"
       inkscape:connector-curvature="0"
       sodipodi:nodetypes="ccccccccccccccccccccccccccc" />
    <path
       id="path79764"
       style="fill:none;stroke:#000000"
       d="m 85.142177,104.06244 -0.844648,1.10077 -1.100762,0.84464 -1.281865,0.53098 -1.375615,0.18109 -1.375616,-0.18109 -1.281865,-0.53098 -1.100761,-0.84464 -0.844649,-1.10077 -0.530967,-1.28186 -0.181103,-1.37562 0.181103,-1.3756 0.530967,-1.28188 0.844649,-1.10075 1.100761,-0.84466 1.281865,-0.53096 1.375616,-0.18111 1.375615,0.18111 1.281865,0.53096 1.100762,0.84466 0.844648,1.10075 0.530967,1.28188 0.181103,1.3756 -0.181103,1.37562 z"
       inkscape:connector-curvature="0"
       sodipodi:nodetypes="ccccccccccccccccccccccccc" />
    <path
       id="path79766"
       style="fill:none;stroke:#000000"
       d="m 203.94101,271.65235 1.07775,0.8738 0.81488,1.123 0.49645,1.2956 0.1442,1.38 -0.21788,1.3703 -0.56509,1.2672 -0.87382,1.0777 -1.12299,0.8149 -1.29563,0.4964 -1.37996,0.1442 -1.37027,-0.2178 -1.2672,-0.5651 -1.07775,-0.8738 -0.81486,-1.123 -0.49645,-1.2957 -0.14421,-1.3799 0.21787,-1.3703 0.56511,-1.2672 0.87381,-1.0777 1.12299,-0.8149 1.29562,-0.4965 1.37997,-0.1442 1.37028,0.2179 z"
       inkscape:connector-curvature="0"
       sodipodi:nodetypes="ccccccccccccccccccccccccc" />
    <path
       id="path79772"
       style="fill:none;stroke:#000000"
       d="m 563.3017,101.40496 -0.18113,1.37562 -0.53093,1.28186 -0.84463,1.10077 -1.1008,0.84464 -1.28186,0.53098 -1.37561,0.18109 -1.37562,-0.18109 -1.28187,-0.53098 -1.10074,-0.84464 -0.84468,-1.10077 -0.53093,-1.28186 -0.18113,-1.37562 0.18113,-1.3756 0.53093,-1.28188 0.84468,-1.10075 1.10074,-0.84466 1.28187,-0.53096 1.37562,-0.18111 1.37561,0.18111 1.28186,0.53096 1.1008,0.84466 0.84463,1.10075 0.53093,1.28188 z"
       inkscape:connector-curvature="0"
       sodipodi:nodetypes="ccccccccccccccccccccccccc" />
    <path
       id="path79774"
       style="fill:none;stroke:#000000"
       d="m 381.19698,149.39263 -1.77828,-0.51002 -1.58569,-0.95289 -1.28505,-1.33083 -0.8968,-1.61807 -0.44746,-1.79505 0.0324,-1.8497 0.51,-1.77829 7.95808,-21.51065 0.88405,-1.62508 1.27453,-1.34088 1.57815,-0.96533 1.77422,-0.52399 1.84938,-0.0469 1.79852,0.43332 1.62506,0.88406 1.3409,1.27453 0.96533,1.57814 0.52399,1.77423 0.0469,1.84938 -0.43331,1.79852 -8.18839,22.0729 -0.95289,1.5857 -1.33083,1.28502 -1.61807,0.89681 -1.79504,0.44747 z"
       inkscape:connector-curvature="0"
       sodipodi:nodetypes="ccccccccccccccccccccccccccc" />
    <path
       id="path79776"
       style="fill:none;stroke:#000000"
       d="m 716.22187,209.14316 -1.1008,0.84464 -1.28186,0.53097 -1.37562,0.1811 -31.54871,0 -1.37562,-0.1811 -1.28186,-0.53097 -1.1008,-0.84464 -0.84462,-1.10077 -0.53099,-1.28186 -0.18107,-1.37562 0.18107,-1.37561 0.53099,-1.28187 0.84462,-1.10076 1.1008,-0.84465 1.28186,-0.53096 1.37562,-0.18111 31.54871,0 1.37562,0.18111 1.28186,0.53096 1.1008,0.84465 0.84462,1.10076 0.53099,1.28187 0.18107,1.37561 -0.18107,1.37562 -0.53099,1.28186 z"
       inkscape:connector-curvature="0"
       sodipodi:nodetypes="ccccccccccccccccccccccccccc" />
    <path
       id="path79778"
       style="fill:none;stroke:#000000"
       d="m 672.27261,189.97358 -1.1008,-0.84465 -18.23341,-16.46272 -0.84463,-1.10076 -0.53098,-1.28188 -0.18107,-1.3756 0.18107,-1.37561 0.53098,-1.28187 0.84463,-1.10077 1.1008,-0.84464 1.28186,-0.53097 1.37562,-0.1811 1.37561,0.1811 1.28187,0.53097 1.10074,0.84464 18.23341,16.46272 0.84468,1.10077 0.53094,1.28186 0.18112,1.37562 -0.18112,1.37562 -0.53094,1.28186 -0.84468,1.10076 -1.10074,0.84465 -1.28187,0.53097 -1.37561,0.1811 -1.37562,-0.1811 z"
       inkscape:connector-curvature="0"
       sodipodi:nodetypes="ccccccccccccccccccccccccccc" />
    <path
       id="path79780"
       style="fill:none;stroke:#000000"
       d="m 11.428199,216.94797 3.539778,-8.54578 5.630975,-7.33843 7.338429,-5.63098 8.545782,-3.53977 9.170754,-1.20736 0,0 67.322843,0 8.43433,-1.1104 7.85955,-3.25553 6.74916,-5.17881 5.17879,-6.74914 3.25554,-7.85955 1.1104,-8.43435 -1.04308,-8.47711 -3.25554,-7.85955 -5.1788,-6.74916 -6.74915,-5.1788 -7.85955,-3.25553 -8.43434,-1.1104 -67.32283,0 -9.170754,-1.20735 -8.545782,-3.53978 -7.338429,-5.63098 -5.630975,-7.33843 -3.539779,-8.54577 -1.207352,-9.17076 1.207352,-9.17075 0.329072,-1.95799 1.893471,-5.30246 2.600855,-4.99367 3.259362,-4.59106 3.856619,-4.10217 4.381404,-3.5362 4.823851,-2.90375 5.175648,-2.21673 5.430185,-1.4881 5.582674,-0.73147 5.630257,0.03891 64.306511,-3.464055 2.07271,-0.12574 2.06842,-0.18344 2.06249,-0.24103 2.05497,-0.29842 2.04587,-0.35557 2.03515,-0.41248 2.02287,-0.46902 2.00901,-0.52521 1.99358,-0.58102 1.97662,-0.63634 1.95813,-0.69119 26.60585,-10.630945 26.58378,-10.236365 1.9448,-0.10946 1.9433,0.13373 1.91147,0.3749 1.84986,0.61014 1.75941,0.83595 1.64151,1.04865 1.49804,1.24507 1.3312,1.42203 1.14361,1.57683 0.93821,1.70707 0.71815,1.81066 7.18238,15.02097 10.82536,12.6502 13.73061,9.417315 7.85006,2.77137 224.65227,0 10.18971,0.97053 13.6822,-2.30415 12.61957,-5.76683 10.69707,-8.83653 8.04549,-11.30405 2.42278,-6.50059 1.26645,-2.75831 1.65752,-2.54254 3.17506,-3.24751 3.74795,-2.56513 2.79102,-1.19258 2.93587,-0.76996 3.01703,-0.3307 3.03292,0.11573 2.98312,0.55967 2.86861,0.99148 2.69203,1.40178 45.86916,17.35132 1.17763,0.42999 1.12912,0.54477 1.06944,0.65418 0.99926,0.75707 0.91913,0.85255 0.82997,0.93956 0.73266,1.01732 0.62804,1.08501 0.51725,1.14197 0.40128,1.1877 0.28148,1.22167 0.15879,1.24355 0.31137,2.7258 0.50903,2.69586 0.70401,2.65165 0.89528,2.59335 1.08172,2.52124 1.2625,2.43579 1.4365,2.33736 1.60291,2.22656 1.76084,2.10391 1.90931,1.97009 2.04777,1.82581 2.17526,1.67184 11.00768,8.44645 12.81865,5.30968 9.88283,1.30108 37.59351,0 3.82116,-0.49983 3.85116,0.14016 3.77466,0.77628 3.59391,1.39095 3.31379,1.96722 2.94203,2.48902 2.48906,2.94206 1.96716,3.31378 1.39092,3.59392 0.77628,3.77468 -0.0673,80.56289 -0.77629,3.77469 -1.39091,3.59391 -1.96721,3.31378 -2.48901,2.94206 -4.59893,3.4726 -5.25081,2.37454 -3.77472,0.77628 -3.8511,0.14016 -3.82116,-0.49984 -37.59352,0 -9.88282,1.3011 -12.81865,5.30967 -11.00768,8.44646 -2.17526,1.67183 -2.04778,1.82582 -1.90936,1.97008 -1.76078,2.10391 -1.60292,2.22655 -1.43654,2.33742 -1.26246,2.4357 -1.08176,2.5213 -0.89524,2.5933 -0.704,2.6517 -0.50903,2.6958 -0.31137,2.7258 -0.1588,1.2436 -0.28147,1.2217 -0.40133,1.1877 -0.5172,1.1419 -0.62804,1.0851 -0.73266,1.0173 -0.82997,0.9395 -0.91914,0.8526 -0.99925,0.7571 -1.0695,0.6541 -1.12907,0.5448 -1.17762,0.43 -45.86916,17.3513 -2.69203,1.4018 -2.86861,0.9915 -2.98313,0.5596 -3.03292,0.1158 -3.01702,-0.3307 -2.93587,-0.77 -2.79102,-1.1926 -2.58574,-1.5893 -2.32448,-1.9516 -2.01279,-2.2717 -1.65758,-2.5426 -1.2664,-2.7583 -2.42283,-6.5006 -8.04543,-11.304 -10.69707,-8.8365 -12.61957,-5.7669 -13.6822,-2.3041 -10.18971,0.97045 -224.6523,0 -7.85006,2.77145 -13.7306,9.4173 -10.82536,12.6502 -7.18238,15.021 -0.71815,1.8106 -0.9382,1.7071 -1.14362,1.5768 -1.3312,1.4221 -1.49803,1.245 -1.64152,1.0487 -1.75941,0.8359 -1.84984,0.6102 -1.91149,0.3749 -1.94329,0.1337 -1.94481,-0.1095 -26.58377,-10.23635 -26.60586,-10.63095 -1.95812,-0.6912 -1.97661,-0.6363 -1.9936,-0.581 -2.00901,-0.5252 -2.02287,-0.4691 -2.03515,-0.4124 -2.04586,-0.3556 -2.05497,-0.2984 -2.06249,-0.2411 -2.06842,-0.1834 -2.07272,-0.1257 -64.306504,-3.46415 -5.630257,0.0389 -5.582674,-0.7314 -5.430185,-1.4881 -5.175648,-2.2168 -4.823851,-2.9037 -4.381403,-3.5362 -3.856619,-4.1022 -3.259363,-4.591 -2.600854,-4.99373 -1.893471,-5.30246 -0.329072,-1.95799 -1.207353,-9.17075 1.207353,-9.17075"
       inkscape:connector-curvature="0"
       sodipodi:nodetypes="ccccccccccccccccccccccccccccccccccccccccccccccccccccccccccccccccccccccccccccccccccccccccccccccccccccccccccccccccccccccccccccccccccccccccccccccccccccccccccccccccccccccccccccccccccccccccccccccccccccccccccccccccccccccccccccccccc" />
    <path
       id="path79782"
       style="fill:none;stroke:#000000"
       d="m 256.18111,172.45636 0.5747,4.36526 1.77295,4.28026 2.82033,3.67555 3.67555,2.82034 4.28027,1.77294 4.5933,0.60472 4.59328,-0.60472 4.28026,-1.77294 3.67556,-2.82034 2.82035,-3.67555 1.77293,-4.28026 0.57359,-4.35686 0.0684,-28.76815 -0.57467,-4.36524 -1.77295,-4.28028 -2.82036,-3.67554 -3.67553,-2.82034 -4.28028,-1.77295 -4.59328,-0.60472 -4.59328,0.60472 -4.28027,1.77295 -3.67555,2.82034 -2.82036,3.67554 -1.77295,4.28028 -0.57359,4.35684 z"
       inkscape:connector-curvature="0"
       sodipodi:nodetypes="ccccccccccccccccccccccccccc" />
    <path
       id="path79786"
       style="fill:none;stroke:#000000"
       d="m 562.52233,217.40549 0.53093,-1.28187 0.18112,-1.37561 -0.18112,-1.37562 -0.53093,-1.28186 -0.84469,-1.10077 -1.10074,-0.84464 -1.28186,-0.53097 -1.37562,-0.1811 -1.37561,0.1811 -1.28187,0.53097 -1.10079,0.84464 -0.84463,1.10077 -0.53093,1.28186 -0.18113,1.37562 0.18113,1.37561 0.53093,1.28187 0.84463,1.10076 1.10079,0.84465 1.28187,0.53097 1.37561,0.1811 1.37562,-0.1811 1.28186,-0.53097 1.10074,-0.84465 z"
       inkscape:connector-curvature="0"
       sodipodi:nodetypes="ccccccccccccccccccccccccc" />
    <path
       id="path79788"
       style="fill:none;stroke:#000000"
       d="m 304.80899,77.95076 -0.91707,-0.12073 -0.91708,0.12073 -0.85458,0.35397 -0.73384,0.56311 -0.56311,0.73384 -0.35397,0.85458 -0.12073,0.91708 0.12073,0.91707 0.35397,0.85458 0.56311,0.73385 0.73384,0.56308 0.85458,0.35398 0.91708,0.12074 0.91707,-0.12074 0.85458,-0.35398 0.73384,-0.56308 0.56308,-0.73385 0.354,-0.85458 0.12073,-0.91707 -0.12073,-0.91708 -0.354,-0.85458 -0.56308,-0.73384 -0.73384,-0.56311 z"
       inkscape:connector-curvature="0"
       sodipodi:nodetypes="ccccccccccccccccccccccccc" />
    <path
       id="path79792"
       style="fill:none;stroke:#000000"
       d="m 202.74115,45.06571 1.26719,-0.5651 1.07775,-0.87383 0.81486,-1.12296 0.49645,-1.29562 0.14421,-1.38 -0.21787,-1.37026 -0.5651,-1.26719 -0.87382,-1.07776 -1.12299,-0.81487 -1.29562,-0.49644 -1.37997,-0.14419 -1.37028,0.21786 -1.26718,0.5651 -1.07775,0.87383 -0.81488,1.12296 -0.49644,1.29565 -0.14421,1.37997 0.21788,1.37026 0.5651,1.26719 0.87381,1.07776 1.12299,0.81487 1.29563,0.49644 1.37996,0.14422 z"
       inkscape:connector-curvature="0"
       sodipodi:nodetypes="ccccccccccccccccccccccccc" />
    <path
       id="path79794"
       style="fill:none;stroke:#000000"
       d="m 332.82024,223.62265 -0.53096,-1.28186 -0.1811,-1.37562 0.1811,-1.37561 0.53096,-1.28187 0.84465,-1.10076 1.10077,-0.84465 1.28187,-0.53097 1.37561,-0.1811 54.51898,0 1.37561,0.1811 1.28187,0.53097 1.10077,0.84465 0.84465,1.10076 0.53096,1.28187 0.1811,1.37561 -0.1811,1.37562 -0.53096,1.28186 -0.84465,1.10076 -1.10077,0.84465 -1.28187,0.53097 -1.37561,0.1811 -54.51898,0 -1.37561,-0.1811 -1.28187,-0.53097 -1.10077,-0.84465 z"
       inkscape:connector-curvature="0"
       sodipodi:nodetypes="ccccccccccccccccccccccccccc" />
    <path
       id="path79796"
       style="fill:none;stroke:#000000"
       d="m 420.04087,201.95358 -1.77422,-0.52398 -1.57815,-0.96533 -1.27454,-1.34089 -0.88404,-1.62508 -7.95809,-21.51066 -0.51001,-1.77828 -0.0324,-1.8497 0.44747,-1.79505 0.8968,-1.61806 1.28506,-1.33084 1.58569,-0.95289 1.77828,-0.51001 1.84969,-0.0324 1.79504,0.44747 1.61808,0.8968 1.33082,1.28504 0.9529,1.58569 8.18838,22.07291 0.43331,1.79851 -0.0469,1.84938 -0.52398,1.77422 -0.96534,1.57815 -1.34087,1.27453 -1.62508,0.88406 -1.79853,0.43332 z"
       inkscape:connector-curvature="0"
       sodipodi:nodetypes="ccccccccccccccccccccccccccc" />
    <path
       id="path79798"
       style="fill:none;stroke:#000000"
       d="m 343.64311,142.66287 0.44745,1.79505 0.89679,1.61808 1.285,1.33082 1.58571,0.95289 1.7783,0.51001 1.8497,0.0324 1.79504,-0.44746 1.61805,-0.89681 1.33087,-1.28502 0.95287,-1.5857 8.18839,-22.07292 0.43334,-1.79851 -0.0469,-1.84937 -0.524,-1.77423 -0.96533,-1.57815 -1.34088,-1.27453 -1.62508,-0.88406 -1.79849,-0.43332 -1.84941,0.0469 -1.77422,0.52397 -1.57815,0.96533 -1.27454,1.3409 -0.88404,1.62508 -7.95808,21.51065 -0.51,1.77829 z"
       inkscape:connector-curvature="0"
       sodipodi:nodetypes="ccccccccccccccccccccccccccc" />
    <path
       id="path79800"
       style="fill:none;stroke:#000000"
       d="m 85.605825,216.12362 0.181103,-1.37561 -0.181103,-1.37562 -0.530968,-1.28186 -0.844648,-1.10077 -1.100762,-0.84464 -1.281871,-0.53097 -1.375609,-0.1811 -1.375616,0.1811 -1.281864,0.53097 -1.100769,0.84464 -0.844648,1.10077 -0.530961,1.28186 -0.181103,1.37562 0.181103,1.37561 0.530961,1.28187 0.844648,1.10076 1.100769,0.84465 1.281864,0.53097 1.375616,0.1811 1.375609,-0.1811 1.281871,-0.53097 1.100762,-0.84465 0.844648,-1.10076 z"
       inkscape:connector-curvature="0"
       sodipodi:nodetypes="ccccccccccccccccccccccccc" />
    <path
       id="path79802"
       style="fill:none;stroke:#000000"
       d="m 648.18081,186.74631 -0.53098,1.28186 -0.84463,1.10076 -1.1008,0.84465 -1.28186,0.53097 -1.37562,0.1811 -1.37556,-0.1811 -1.28192,-0.53097 -1.10074,-0.84465 -18.23341,-16.46272 -0.84469,-1.10076 -0.53093,-1.28188 -0.18112,-1.3756 0.18112,-1.37561 0.53093,-1.28187 0.84469,-1.10077 1.10074,-0.84464 1.28186,-0.53097 1.37562,-0.1811 1.37561,0.1811 1.28187,0.53097 1.1008,0.84464 18.23341,16.46272 0.84463,1.10077 0.53098,1.28186 0.18107,1.37562 z"
       inkscape:connector-curvature="0"
       sodipodi:nodetypes="ccccccccccccccccccccccccccc" />
    <path
       id="path79804"
       style="fill:none;stroke:#000000"
       d="m 711.51921,130.4956 0.18112,1.37561 -0.18112,1.37561 -0.53099,1.28187 -0.84463,1.10077 -18.23341,16.46273 -1.10079,0.84464 -1.28187,0.53096 -1.37561,0.18111 -1.37562,-0.18111 -1.28186,-0.53096 -1.10075,-0.84464 -0.84462,-1.10077 -0.53099,-1.28187 -0.18112,-1.37561 0.18112,-1.37562 0.53099,-1.28186 0.84462,-1.10077 18.23342,-16.46272 1.10079,-0.84465 1.28187,-0.53096 1.37561,-0.18111 1.37562,0.18111 1.28186,0.53096 1.10074,0.84465 0.84463,1.10076 z"
       inkscape:connector-curvature="0"
       sodipodi:nodetypes="ccccccccccccccccccccccccccc" />
  </g>
</svg>
